<?xml version="1.0" encoding="UTF-8" standalone="no"?>
<!DOCTYPE svg PUBLIC "-//W3C//DTD SVG 1.1//EN" "http://www.w3.org/Graphics/SVG/1.1/DTD/svg11.dtd">
<svg width="100%" height="100%" viewBox="0 0 347 92" version="1.1" xmlns="http://www.w3.org/2000/svg" xmlns:xlink="http://www.w3.org/1999/xlink" xml:space="preserve" xmlns:serif="http://www.serif.com/" style="fill-rule:evenodd;clip-rule:evenodd;stroke-linejoin:round;stroke-miterlimit:2;">
    <g transform="matrix(1.45259,0,0,1.45259,-2655.6,-416.672)">
        <path d="M2065.77,288.985L2003.55,288.985C1976,288.985 1976,323.668 2003.55,323.668L2041.64,323.668C2051.57,323.668 2050.21,333.458 2041.64,333.458L1991.83,333.458L1983.56,347.819L2044.4,347.819C2073.91,347.819 2073.91,309.673 2044.4,309.673L2007,309.673C2002.71,309.673 2002.71,303.641 2007,303.641L2057.17,303.641L2065.77,288.985Z"/>
        <path d="M1910.2,306.49C1914.42,296.704 1924.37,289.034 1940.32,288.985L1989.26,288.985C1982.79,291.904 1979.12,296.779 1978.06,303.463L1942.9,303.463C1922.51,302.909 1921.52,332.242 1942.9,333.452L1986.33,333.452L1977.37,347.819L1940.32,347.819C1920.01,347.81 1909.02,334.306 1907.95,320.24C1904.2,327.617 1896.38,333.384 1885.24,333.384L1846.93,333.384L1846.93,347.819L1828.19,347.819L1828.19,317.226L1885.06,317.226C1894.96,317.143 1894.11,302.804 1885.06,302.792L1828.62,302.792L1837.02,288.985L1885.24,289.003C1900.8,289.003 1908.7,297.166 1910.2,306.49Z"/>
    </g>
</svg>
