<?xml version="1.0" encoding="UTF-8" standalone="no"?>
<!DOCTYPE svg PUBLIC "-//W3C//DTD SVG 1.1//EN" "http://www.w3.org/Graphics/SVG/1.1/DTD/svg11.dtd">
<svg width="100%" height="100%" viewBox="0 0 500 217" version="1.1" xmlns="http://www.w3.org/2000/svg" xmlns:xlink="http://www.w3.org/1999/xlink" xml:space="preserve" xmlns:serif="http://www.serif.com/" style="fill-rule:evenodd;clip-rule:evenodd;stroke-linejoin:round;stroke-miterlimit:2;">
    <g transform="matrix(4.16667,0,0,4.16667,0,0)">
        <path d="M55.069,24.104L62.101,24.104L62.101,24.537C61.119,24.537 60.106,24.602 60.106,25.387C60.106,25.555 60.14,25.956 60.357,26.49L63.069,33.422L65.877,26.675C65.984,26.111 66.043,25.976 65.956,25.593C65.767,24.76 64.866,24.535 63.902,24.537L63.902,24.104L69.205,24.104L69.205,24.537C67.96,24.597 67.295,25.341 66.735,26.235L62.241,36.526L61.764,36.526L57.669,26.263C57.149,25.208 57.099,24.653 55.069,24.537L55.069,24.104Z" style="fill-rule:nonzero;"/>
        <path d="M77.597,36.217L77.597,35.79C78.961,35.707 79.327,35.6 79.327,34.143L79.327,27.048C79.327,25.955 78.64,25.898 77.612,25.634C77.612,25.634 80.708,24 81.804,23.473L81.804,27.084C82.227,25.899 83.23,23.636 84.768,23.62C85.601,23.609 86.213,24.258 86.213,25.128C86.213,25.674 86.024,26.585 84.909,26.585C84.049,26.585 84.104,25.876 83.375,25.876C82.758,25.876 81.859,27.796 81.859,28.623L81.859,34.143C81.859,35.54 82.291,35.686 83.974,35.79L83.974,36.217L77.597,36.217Z" style="fill-rule:nonzero;"/>
        <path d="M102.961,21.514L102.961,24.104L107.111,24.104L106.438,25.347L102.961,25.347L102.961,32.909C102.961,34.31 103.554,35.177 105.096,35.177C105.825,35.177 106.631,34.53 107.167,34.114L107.454,34.387C107.266,34.606 107.014,34.911 106.832,35.069C105.938,35.834 104.84,36.526 103.663,36.526C101.644,36.526 100.721,35.004 100.604,33.189L100.604,25.347L98.707,25.347L102.961,21.514Z" style="fill-rule:nonzero;"/>
        <path d="M104.878,24.104L110.91,24.104L110.91,24.537C109.132,24.475 108.674,24.754 109.114,25.714C109.283,26.085 112.78,33.818 112.78,33.818L115.601,26.677C116.135,25.205 116.122,24.535 113.574,24.537L113.574,24.104L119.056,24.104L119.056,24.537C116.985,24.482 116.615,25.279 116.195,26.513C116.195,26.513 111.489,38.416 111.202,39.209C110.84,40.211 110.027,40.907 108.545,40.842C107.718,40.806 106.972,39.991 106.972,39.402C106.972,38.729 107.465,38.099 108.18,38.116C108.797,38.131 108.975,38.37 109.203,38.668C109.404,38.934 109.395,39.09 109.42,39.411C109.465,40.011 110.242,40.291 110.7,39.129C111.316,37.566 111.613,36.834 111.613,36.834L106.399,25.919C106.123,25.358 104.878,24.104 104.878,24.104Z" style="fill-rule:nonzero;"/>
        <path d="M67.676,20.055L67.676,20.484L58.486,20.484L58.486,20.055C61.332,19.921 61.423,18.5 61.419,18.165L61.419,1.407L58.841,1.407C56.745,1.574 56.49,1.824 55.614,2.551C54.546,3.438 53.815,4.545 53.155,6.1L52.755,6.042L53.765,0.701C57.974,0.846 58.629,0.831 59.624,0.818L67.079,0.818C67.387,0.818 70.618,0.834 72.51,0.672L68.193,1.362L64.677,1.357L64.677,18.165C64.7,18.507 64.847,19.906 67.676,20.055Z" style="fill-rule:nonzero;"/>
        <path d="M72.722,0.671L72.722,10.717C73.297,9.596 74.753,7.824 76.491,7.824C77.781,7.824 79,8.346 79.645,9.468C80.234,10.449 80.333,11.44 80.333,12.534L80.333,18.17C80.333,19.628 81.016,19.987 82.25,20.071L82.25,20.483L76.285,20.483L76.285,20.071C77.434,19.987 77.958,19.655 77.958,18.17L77.958,12.534C77.958,11.637 77.982,11.224 77.592,10.482C77.25,9.833 76.41,9.449 75.374,9.471C73.746,9.504 72.722,11.138 72.722,11.802L72.722,18.17C72.722,19.628 73.033,19.987 74.211,20.071L74.211,20.483L68.19,20.483L68.19,20.071C69.452,19.987 70.294,19.628 70.294,18.17L70.294,2.634C70.294,1.764 69.096,1.278 65.844,1.362L72.722,0.671Z" style="fill-rule:nonzero;"/>
        <path d="M89.144,11.715C89.021,9.91 88.242,8.226 86.549,8.226C84.8,8.226 83.938,9.975 83.447,11.776L89.144,11.715ZM83.338,12.262C83.257,12.695 83.217,13.23 83.263,13.76C83.503,16.52 85.163,18.645 87.842,18.729C89.586,18.785 91.28,17.643 91.953,15.96L92.291,16.021C91.492,18.762 90.073,20.742 86.898,20.686C83.319,20.624 81.177,18.087 81.058,14.321C80.939,10.604 83.35,7.857 86.819,7.857C89.483,7.857 91.637,9.358 92.256,12.262L83.338,12.262Z" style="fill-rule:nonzero;"/>
        <path d="M12.246,48.006L12.246,47.606C13.704,47.522 14.062,46.821 14.062,45.134L14.064,36.94L12.201,36.94L12.431,35.941L14.063,35.941C14.063,35.941 14.082,33.952 14.142,32.836C14.204,31.668 14.743,27.942 18.578,27.888C19.643,27.873 20.606,28.663 20.605,29.446C20.604,30.218 20.222,30.502 19.561,30.498C18.567,30.491 18.086,29.286 18.021,28.821C17.978,28.511 17.861,28.383 17.684,28.399C16.505,28.502 16.61,30.901 16.608,31.693L16.609,35.941L18.989,35.939L18.766,36.946L16.606,36.94L16.616,45.134C16.61,46.595 16.808,47.522 18.574,47.606L18.574,48.006L12.246,48.006Z" style="fill-rule:nonzero;"/>
        <path d="M85.588,32.395L85.961,32.375C86.491,34.063 87.559,36.048 89.796,36.022C91.503,36.002 92.238,34.799 92.198,33.886C92.123,32.143 90.213,31.598 88.888,30.855C87.239,29.939 85.757,29.014 85.757,27.012C85.757,24.867 87.829,23.7 89.801,23.7C91.127,23.7 92.421,23.999 93.658,24.428L93.817,27.459L93.326,27.479C92.974,25.763 91.656,24.244 89.684,24.244C88.446,24.244 87.678,24.949 87.678,26.122C87.678,28.582 94.436,28.489 94.436,32.665C94.436,35.267 91.95,36.526 89.537,36.526C88.211,36.526 86.905,36.255 85.708,35.597L85.588,32.395Z" style="fill-rule:nonzero;"/>
        <path d="M93.875,25.601C93.875,25.601 97.04,24.072 98.3,23.496L98.3,34.142C98.367,35.6 98.824,35.7 100.215,35.784L100.215,36.217L94.022,36.217L94.022,35.791C95.393,35.698 95.846,35.587 95.926,34.142L95.926,27.2C95.926,26.459 95.9,26.132 95.223,25.941L93.875,25.601Z" style="fill-rule:nonzero;"/>
        <path d="M65.251,51.457C68.107,51.478 69.079,48.518 69.064,46.264C69.048,43.84 68.66,39.616 65.203,39.592C62.256,39.571 61.41,43.388 61.424,45.528C61.439,47.724 62.305,51.438 65.251,51.457ZM65.104,39.049C69.201,39.077 71.868,41.974 71.873,45.597C71.878,49.226 69.353,52.006 65.224,52C61.033,51.993 58.636,49.018 58.611,45.396C58.587,41.944 61.226,39.023 65.104,39.049Z" style="fill-rule:nonzero;"/>
        <path d="M70.918,51.692L70.918,51.266C72.18,51.182 72.759,51.135 72.757,49.617L72.757,42.663C72.745,41.311 71.993,41.336 71.011,41.055C71.011,41.055 74.031,39.54 75.237,38.952L75.237,41.878C76.287,40.582 77.643,38.952 79.41,38.952C81.428,38.952 83.145,41.186 83.145,43.45L83.145,49.617C83.148,51.069 83.746,51.141 84.935,51.279L84.935,51.692L78.985,51.692L78.985,51.266C80.246,51.182 80.612,50.983 80.611,49.59L80.611,44.217C80.632,42.453 79.888,40.594 78.059,40.583C76.833,40.577 75.357,42.258 75.317,43.588L75.317,49.617C75.315,51.055 75.921,51.182 77.126,51.266L77.126,51.692L70.918,51.692Z" style="fill-rule:nonzero;"/>
        <path d="M97.029,20.57C97.908,20.57 98.621,19.857 98.621,18.978C98.621,18.099 97.908,17.386 97.029,17.386C96.149,17.386 95.437,18.099 95.437,18.978C95.437,19.857 96.149,20.57 97.029,20.57Z" style="fill-rule:nonzero;"/>
        <path d="M75.017,27.647C74.894,25.843 74.115,24.159 72.422,24.159C70.673,24.159 69.811,25.908 69.32,27.708L75.017,27.647ZM69.211,28.195C69.131,28.627 69.09,29.162 69.136,29.692C69.376,32.452 71.036,34.578 73.715,34.662C75.46,34.717 77.153,33.575 77.826,31.893L78.164,31.954C77.365,34.695 75.946,36.674 72.772,36.619C69.192,36.557 67.05,34.02 66.931,30.253C66.813,26.537 69.223,23.789 72.692,23.789C75.356,23.789 77.51,25.29 78.129,28.195L69.211,28.195Z" style="fill-rule:nonzero;"/>
        <path d="M53.586,20.57C54.465,20.57 55.178,19.857 55.178,18.978C55.178,18.099 54.465,17.386 53.586,17.386C52.708,17.386 51.994,18.099 51.994,18.978C51.994,19.857 52.708,20.57 53.586,20.57Z" style="fill-rule:nonzero;"/>
        <path d="M6.64,47.668C9.496,47.687 10.468,44.728 10.453,42.474C10.437,40.049 10.049,35.825 6.591,35.801C3.645,35.781 2.799,39.598 2.812,41.737C2.828,43.933 3.694,47.648 6.64,47.668ZM6.493,35.258C10.59,35.286 13.257,38.184 13.262,41.807C13.267,45.436 10.742,48.217 6.613,48.209C2.422,48.202 0.025,45.228 0,41.605C-0.023,38.154 2.614,35.233 6.493,35.258Z" style="fill-rule:nonzero;"/>
        <path d="M50.432,25.601C50.432,25.601 53.596,24.072 54.858,23.496L54.858,34.142C54.925,35.6 55.382,35.7 56.772,35.784L56.772,36.217L51.11,36.217L51.11,35.718C51.794,35.681 52.404,35.587 52.484,34.142L52.484,27.2C52.484,26.459 52.457,26.132 51.78,25.941L50.432,25.601Z" style="fill-rule:nonzero;"/>
        <path d="M37.739,36.217L37.739,35.79C39.001,35.707 39.58,35.662 39.578,34.143L39.578,27.188C39.567,25.836 38.813,25.861 37.832,25.582C37.832,25.582 40.853,24.065 42.059,23.477L42.059,26.404C43.109,25.107 44.464,23.477 46.231,23.477C48.249,23.477 49.966,25.712 49.966,27.975L49.966,34.143C49.969,35.594 50.659,35.707 51.437,35.717L51.437,36.217L45.806,36.217L45.806,35.79C47.067,35.707 47.433,35.508 47.432,34.116L47.432,28.744C47.453,26.977 46.709,25.12 44.88,25.109C43.654,25.103 42.178,26.785 42.138,28.114L42.138,34.143C42.136,35.582 42.742,35.707 43.947,35.79L43.947,36.217L37.739,36.217Z" style="fill-rule:nonzero;"/>
        <path d="M39.186,50.627C39.354,50.644 39.58,50.77 39.578,49.564L39.578,36.663C40.961,36.657 40.748,36.657 42.131,36.659L42.131,45.686L45.892,42.058C46.245,41.656 46.699,41.25 46.61,40.758C46.497,40.129 45.118,40.17 44.698,40.17L44.698,39.738L50.979,39.738L50.979,40.17C48.112,40.256 46.179,42.678 45.102,43.571L49.133,49.146C49.984,50.314 50.593,51.142 51.885,51.166L51.892,51.692L45.434,51.692L45.434,51.265C45.855,51.265 46.837,51.318 46.837,50.522C46.837,50.145 46.499,49.741 46.166,49.329L43.233,45.329L42.131,46.359L42.131,49.457C42.129,51.189 42.483,51.181 43.688,51.265L43.688,51.692L39.186,51.692L39.186,50.627Z" style="fill-rule:nonzero;"/>
        <path d="M51.741,51.692L51.74,51.165C52.179,51.135 52.73,51.102 52.719,49.617L52.719,42.522C52.719,41.428 52.032,41.373 51.004,41.108C51.004,41.108 54.1,39.475 55.197,38.947L55.197,42.559C55.619,41.373 56.623,39.112 58.16,39.094C58.994,39.083 59.607,39.733 59.607,40.602C59.607,41.149 59.417,42.059 58.302,42.059C57.442,42.059 57.496,41.35 56.767,41.35C56.151,41.35 55.253,43.27 55.253,44.098L55.253,49.617C55.253,51.014 55.684,51.162 57.366,51.266L57.366,51.692L51.741,51.692Z" style="fill-rule:nonzero;"/>
        <path d="M25.974,43.489L32.506,43.496L29.903,37.401L29.223,35.447L25.974,43.489ZM20.334,51.692L20.334,51.262C21.195,51.207 22.213,50.871 23.175,48.973L28.822,34.719L28.111,33.395C29.17,32.87 30.176,32.231 30.836,31.493L37.923,48.524C38.509,50.018 38.987,50.751 39.419,50.631L39.419,51.692L32.524,51.692L32.524,51.262C33.433,51.262 35.245,51.137 34.988,49.803C34.813,48.891 33.372,45.479 32.719,44.006L25.76,44.006C25.479,44.79 24.782,46.375 24.332,47.602C23.981,48.559 23.907,49.133 23.907,49.133C23.714,50.166 24.165,51.268 26.293,51.262L26.293,51.692L20.334,51.692Z" style="fill-rule:nonzero;"/>
        <path d="M19.89,16.491L28.354,16.491L28.354,16.927C26.227,16.926 25.379,17.739 25.46,19.269L25.46,30.721C25.379,32.735 26.117,35.78 30.824,35.78C35.256,35.781 36.668,32.408 36.636,29.165L36.636,19.269C36.609,17.312 35.776,17.04 33.819,16.927L33.819,16.491L40.105,16.491L40.105,16.927C38.23,17.06 37.335,17.35 37.295,19.269L37.295,29.165C37.376,33.108 35.873,36.375 29.945,36.375C24.189,36.375 22.342,33.731 22.356,29.956L22.356,19.269C22.386,17.329 21.878,16.918 19.89,16.927L19.89,16.491Z" style="fill-rule:nonzero;"/>
        <path d="M29.21,35.835C29.358,35.835 29.478,35.715 29.478,35.569C29.478,35.42 29.358,35.301 29.21,35.301C29.062,35.301 28.942,35.42 28.942,35.569C28.942,35.715 29.062,35.835 29.21,35.835Z" style="fill-rule:nonzero;"/>
    </g>
</svg>
