<?xml version="1.0" encoding="UTF-8" standalone="no"?>
<!DOCTYPE svg PUBLIC "-//W3C//DTD SVG 1.1//EN" "http://www.w3.org/Graphics/SVG/1.1/DTD/svg11.dtd">
<svg width="100%" height="100%" viewBox="0 0 126 126" version="1.1" xmlns="http://www.w3.org/2000/svg" xmlns:xlink="http://www.w3.org/1999/xlink" xml:space="preserve" xmlns:serif="http://www.serif.com/" style="fill-rule:evenodd;clip-rule:evenodd;stroke-linejoin:round;stroke-miterlimit:2;">
    <g>
        <g transform="matrix(0.141964,0,0,0.141964,4.09305,4.09305)">
            <path d="M263.833,747.233L587.233,287.667L430.6,287.667L583.833,52.767L355.667,52.767L233.233,401.7L383,403.4L263.867,747.233L263.833,747.233Z" style="fill-rule:nonzero;"/>
        </g>
        <g transform="matrix(0.141964,0,0,0.141964,4.09305,4.09305)">
            <path d="M583.833,170.2C577,163.4 563.433,163.4 556.6,170.2C553.2,173.633 549.8,178.733 549.8,183.833C549.8,188.933 551.467,194.033 556.6,197.433L737,376.167C743.801,384.572 743.801,396.694 737,405.1L551.467,588.933C544.703,597.353 544.703,609.447 551.467,617.867C559.967,624.667 571.933,624.667 578.7,617.867L794.867,405.1C801.668,396.694 801.668,384.572 794.867,376.167L583.833,170.2ZM66.4,405.1C59.599,396.694 59.599,384.572 66.4,376.167L243.4,197.433C246.8,194.033 250.2,188.933 250.2,183.833C250.49,178.415 247.903,173.227 243.4,170.2C236.567,163.4 223,163.4 216.167,170.2L5.133,376.167C-1.668,384.572 -1.668,396.694 5.133,405.1L219.567,617.867C228.067,624.667 240.033,624.667 246.8,617.867C253.601,609.461 253.601,597.339 246.8,588.933L66.4,405.1Z" style="fill-rule:nonzero;"/>
        </g>
    </g>
</svg>
