<?xml version="1.0" encoding="UTF-8" standalone="no"?>
<!DOCTYPE svg PUBLIC "-//W3C//DTD SVG 1.1//EN" "http://www.w3.org/Graphics/SVG/1.1/DTD/svg11.dtd">
<svg width="100%" height="100%" viewBox="0 0 140 140" version="1.1" xmlns="http://www.w3.org/2000/svg" xmlns:xlink="http://www.w3.org/1999/xlink" xml:space="preserve" xmlns:serif="http://www.serif.com/" style="fill-rule:evenodd;clip-rule:evenodd;stroke-linejoin:round;stroke-miterlimit:2;">
    <g transform="matrix(1,0,0,1,0,1.4888)">
        <g transform="matrix(0.668132,0,0,0.668132,0.00675679,36.8612)">
            <path d="M143.05,93.42L144.12,89.71C145.39,85.3 144.92,81.23 142.78,78.23C140.78,75.47 137.52,73.85 133.53,73.66L58,72.7C57.202,72.689 56.551,72.029 56.551,71.23C56.551,71.049 56.585,70.869 56.65,70.7C56.912,69.945 57.603,69.416 58.4,69.36L134.66,68.36C143.66,67.95 153.5,60.61 156.93,51.65L161.27,40.29C161.393,39.971 161.454,39.632 161.45,39.29C161.445,39.109 161.425,38.928 161.39,38.75C156.325,16.146 136.087,-0.059 112.922,-0.059C91.71,-0.059 72.733,13.529 65.9,33.61C62.046,30.745 57.369,29.198 52.567,29.198C40.306,29.198 30.217,39.287 30.217,51.548C30.217,53.396 30.447,55.238 30.9,57.03C13.809,57.472 -0.01,71.652 -0.01,88.749C-0.01,90.323 0.107,91.894 0.34,93.45C0.439,94.172 1.061,94.717 1.79,94.72L141.28,94.72C142.091,94.728 142.815,94.196 143.05,93.42Z" style="fill-rule:nonzero;"/>
        </g>
        <g transform="matrix(0.668132,0,0,0.668132,0.00675679,36.8612)">
            <path d="M168.22,41.15C167.553,41.15 166.853,41.17 166.12,41.21C166.01,41.213 165.901,41.237 165.8,41.28C165.429,41.403 165.144,41.703 165.04,42.08L162.04,52.34C160.76,56.75 161.23,60.82 163.38,63.82C165.58,66.695 169,68.386 172.62,68.39L188.73,69.39C189.187,69.404 189.61,69.634 189.87,70.01C190.146,70.412 190.209,70.923 190.04,71.38C189.778,72.135 189.087,72.664 188.29,72.72L171.56,73.72C162.47,74.14 152.68,81.47 149.25,90.42L148.04,93.58C148.001,93.683 147.981,93.792 147.981,93.901C147.981,94.376 148.356,94.773 148.83,94.8L206.46,94.8C207.181,94.817 207.823,94.329 208,93.63C209.015,90.004 209.529,86.256 209.529,82.49C209.529,59.831 190.899,41.178 168.24,41.15L168.22,41.15Z" style="fill-rule:nonzero;"/>
        </g>
    </g>
</svg>
