<?xml version="1.0" encoding="UTF-8" standalone="no"?>
<!DOCTYPE svg PUBLIC "-//W3C//DTD SVG 1.1//EN" "http://www.w3.org/Graphics/SVG/1.1/DTD/svg11.dtd">
<svg width="100%" height="100%" viewBox="0 0 104 104" version="1.1" xmlns="http://www.w3.org/2000/svg" xmlns:xlink="http://www.w3.org/1999/xlink" xml:space="preserve" xmlns:serif="http://www.serif.com/" style="fill-rule:evenodd;clip-rule:evenodd;stroke-linejoin:round;stroke-miterlimit:2;">
    <g transform="matrix(0.333134,0,0,0.333134,9.42845,4.15316)">
        <path d="M255.569,84.452C255.582,123.908 255.582,202.797 255.582,202.797C255.582,207.522 254.589,211.707 252.595,215.315C250.542,219.023 247.426,222.127 243.209,224.567C209.179,244.186 175.119,263.744 141.104,283.384C131.931,288.68 123.04,288.488 113.934,283.115C100.394,275.126 32.58,236.282 12.374,224.579C8.157,222.138 5.041,219.036 2.988,215.325C0.991,211.717 0,207.532 0,202.808C0.013,163.352 0,123.898 0.013,84.443C0.015,74.861 4.064,67.489 12.385,62.672C32.59,50.969 100.395,12.122 113.938,4.135C123.04,-1.235 131.931,-1.428 141.101,3.866C175.115,23.505 209.173,43.064 243.198,62.683C247.32,65.07 250.393,68.089 252.445,71.691C254.534,75.354 255.567,79.622 255.569,84.452ZM201.892,116.294L195.155,116.294L195.155,129.768L181.682,129.768L181.682,136.505L195.155,136.505L195.155,149.978L181.682,149.978L181.682,156.715L195.155,156.715L195.155,170.189L201.892,170.189L201.892,156.715L215.366,156.715L215.366,170.189L222.103,170.189L222.103,156.715L235.577,156.715L235.577,149.978L222.103,149.978L222.103,136.505L235.577,136.505L235.577,129.768L222.103,129.768L222.103,116.294L215.366,116.294L215.366,129.768L201.892,129.768L201.892,116.294ZM215.366,136.505L215.366,149.978L201.892,149.978L201.892,136.505L215.366,136.505ZM169.481,167.166C161.318,181.363 146.008,190.931 128.457,190.931C110.873,190.931 95.544,181.33 87.39,167.095C83.428,160.178 81.151,152.169 81.151,143.625C81.151,117.5 102.331,96.32 128.457,96.32L128.996,96.323C146.128,96.515 161.063,105.824 169.21,119.617L210.559,95.809C194.086,67.59 163.487,48.626 128.457,48.626C75.988,48.626 33.456,91.159 33.456,143.625C33.456,160.838 38.035,176.979 46.038,190.902C62.432,219.422 93.202,238.626 128.457,238.626L129.515,238.62C164.25,238.241 194.513,219.213 210.768,191.084L169.481,167.166Z"/>
    </g>
</svg>
