<?xml version="1.0" encoding="UTF-8" standalone="no"?>
<!DOCTYPE svg PUBLIC "-//W3C//DTD SVG 1.1//EN" "http://www.w3.org/Graphics/SVG/1.1/DTD/svg11.dtd">
<svg width="100%" height="100%" viewBox="0 0 106 106" version="1.1" xmlns="http://www.w3.org/2000/svg" xmlns:xlink="http://www.w3.org/1999/xlink" xml:space="preserve" xmlns:serif="http://www.serif.com/" style="fill-rule:evenodd;clip-rule:evenodd;stroke-linejoin:round;stroke-miterlimit:2;">
    <g transform="matrix(0.213136,0,0,0.213136,4.12132,4.12132)">
        <path d="M456,22.8L456,433.2C456,445.784 445.784,456 433.2,456L22.8,456C10.216,456 0,445.784 0,433.2L0,22.8C0,10.216 10.216,0 22.8,0L433.2,0C445.784,0 456,10.216 456,22.8ZM300.449,289.515L300.449,272.903L254.746,272.903L254.746,237.861L294.485,237.861L294.485,221.249L254.746,221.249L254.746,187.695L297.87,187.695L297.87,171L235.561,171L235.561,289.515L300.449,289.515ZM210.167,289.515L210.167,171L191.708,171L191.708,247.365C191.708,254.859 191.977,260.176 192.514,263.316L192.192,263.316C191.547,261.994 190.096,259.57 187.839,256.043L134.477,171L112.149,171L112.149,289.515L130.689,289.515L130.689,211.827C130.689,203.508 130.474,198.081 130.044,195.546L130.528,195.546C131.441,197.915 132.597,200.202 133.994,202.406L189.209,289.515L210.167,289.515ZM81.274,291.333C84.552,291.333 87.319,290.259 89.576,288.11C91.887,285.906 93.042,283.289 93.042,280.259C93.042,277.173 91.887,274.529 89.576,272.325C87.319,270.121 84.552,269.019 81.274,269.019C78.05,269.019 75.309,270.121 73.052,272.325C70.795,274.529 69.666,277.173 69.666,280.259C69.666,283.289 70.795,285.906 73.052,288.11C75.309,290.259 78.05,291.333 81.274,291.333ZM392.667,187.695L392.667,171L307.143,171L307.143,187.695L340.272,187.695L340.272,289.515L359.457,289.515L359.457,187.695L392.667,187.695Z"/>
    </g>
</svg>
