<?xml version="1.0" encoding="UTF-8" standalone="no"?>
<!DOCTYPE svg PUBLIC "-//W3C//DTD SVG 1.1//EN" "http://www.w3.org/Graphics/SVG/1.1/DTD/svg11.dtd">
<svg width="100%" height="100%" viewBox="0 0 108 108" version="1.1" xmlns="http://www.w3.org/2000/svg" xmlns:xlink="http://www.w3.org/1999/xlink" xml:space="preserve" xmlns:serif="http://www.serif.com/" style="fill-rule:evenodd;clip-rule:evenodd;stroke-linejoin:round;stroke-miterlimit:2;">
    <g transform="matrix(0.0838887,0,0,0.0838887,9.43484,9.43484)">
        <path d="M1052,71.523L1052,980.477C1052,1019.95 1019.95,1052 980.477,1052L71.523,1052C32.049,1052 0,1019.95 0,980.477L0,71.523C0,32.049 32.049,0 71.523,0L980.477,0C1019.95,0 1052,32.049 1052,71.523ZM397.464,612.785L397.119,816.44L394.585,826.001C391.244,838.557 387.328,846.044 380.416,852.956C370.74,862.631 358.3,866.663 337.566,866.778C307.962,866.894 290.222,854.338 269.604,819.09C266.263,813.561 263.268,809.068 262.922,809.183C262.462,809.414 241.612,821.969 216.616,837.059L171.116,864.705L174.572,871.616C195.191,912.739 230.9,943.84 273.866,958.124C319.25,973.214 377.536,971.832 420.272,954.668C471.531,933.934 501.596,891.083 509.544,827.383C510.235,820.933 510.696,748.939 510.696,613.476L510.696,409.244L397.925,409.244L397.464,612.785ZM756.051,403.484C712.509,406.94 675.994,422.606 648.809,449.56C620.818,477.321 607.456,511.187 607.456,554.153C607.456,618.429 633.834,663.353 692.696,698.947C707.671,707.931 728.059,717.723 763.308,732.928C811.342,753.547 829.196,763.338 840.6,775.548C854.653,790.638 858.57,814.712 849.7,833.143C847.972,836.714 843.48,842.704 839.448,846.735C825.856,860.443 804.43,867.7 777.821,867.7C732.897,867.7 699.377,849.269 672.423,809.414C668.737,804.115 665.396,799.738 664.935,799.738C663.899,799.738 576.239,850.306 574.396,852.034C573.244,853.071 574.166,855.49 578.658,862.862C613.676,921.839 668.391,956.396 742.343,966.302C761.695,968.952 797.98,968.837 816.525,966.302C863.062,959.737 897.965,944.301 925.034,918.038C953.832,890.277 968,854.338 968,809.299C968,780.501 963.277,758.039 952.565,735.807C945.192,720.602 937.82,710.35 925.149,697.449C900.844,672.799 869.397,654.138 806.619,627.183C759.161,606.795 743.264,598.04 732.782,586.867C722.761,576.154 718.499,563.598 719.42,547.933C720.226,535.492 723.682,527.083 731.285,518.905C742.228,507.04 754.899,502.087 774.481,502.202C796.713,502.202 811.111,507.962 825.74,522.706C830.924,527.774 837.605,535.953 840.715,540.906C844.286,546.55 846.935,549.66 847.857,549.315C850.852,548.048 934.595,493.909 934.595,493.102C934.595,492.641 930.333,485.96 925.149,478.128C914.091,461.54 894.163,440.806 880.456,431.706C855.114,414.888 828.044,406.249 792.335,403.6C774.827,402.217 772.523,402.217 756.051,403.484Z"/>
    </g>
</svg>
