<?xml version="1.0" encoding="UTF-8" standalone="no"?>
<!DOCTYPE svg PUBLIC "-//W3C//DTD SVG 1.1//EN" "http://www.w3.org/Graphics/SVG/1.1/DTD/svg11.dtd">
<svg width="100%" height="100%" viewBox="0 0 103 103" version="1.1" xmlns="http://www.w3.org/2000/svg" xmlns:xlink="http://www.w3.org/1999/xlink" xml:space="preserve" xmlns:serif="http://www.serif.com/" style="fill-rule:evenodd;clip-rule:evenodd;stroke-linejoin:round;stroke-miterlimit:2;">
    <g transform="matrix(0.904031,0,0,0.904031,-0.75886,-0.912626)">
        <path d="M89.63,29.34C89.551,29.376 89.483,29.431 89.43,29.5C89.372,29.563 89.327,29.638 89.3,29.72C89.286,29.803 89.286,29.887 89.3,29.97C89.308,30.057 89.332,30.142 89.37,30.22C89.542,30.559 89.608,30.943 89.56,31.32C89.512,31.687 89.363,32.033 89.13,32.32C89.02,32.45 88.969,32.621 88.99,32.79C89.008,32.96 89.095,33.115 89.23,33.22C89.358,33.328 89.523,33.382 89.69,33.37C89.86,33.359 90.019,33.28 90.13,33.15C90.536,32.663 90.793,32.069 90.87,31.44C90.942,30.808 90.827,30.168 90.54,29.6C90.463,29.449 90.33,29.334 90.17,29.28C89.989,29.228 89.795,29.249 89.63,29.34Z" style="fill-rule:nonzero;"/>
    </g>
    <g transform="matrix(0.881708,0,0,0.881708,0.520996,0.371148)">
        <path d="M64.46,1.46C62.098,1.16 59.72,1.01 57.339,1.01C26.344,1.01 0.839,26.515 0.839,57.51C0.839,88.504 26.344,114.01 57.339,114.01C85.63,114.01 109.78,92.761 113.38,64.7C117.288,33.94 95.215,5.406 64.46,1.46ZM76.11,36.71C75.058,36.72 74.052,37.144 73.31,37.89L52.31,58.89L47.83,54.41C68.52,33.77 72.26,33.57 76.11,36.71ZM53.17,59.59L74.11,38.69C74.657,38.144 75.399,37.837 76.172,37.837C77.37,37.837 78.452,38.575 78.89,39.69C79.033,40.06 79.101,40.454 79.09,40.85C79.078,41.249 78.982,41.64 78.81,42C78.639,42.361 78.398,42.684 78.1,42.95L55.94,62.36L53.17,59.59ZM54.73,62.86L49.54,64C49.483,64.026 49.417,64.026 49.36,64C49.301,63.977 49.252,63.935 49.22,63.88C49.201,63.822 49.201,63.758 49.22,63.7C49.232,63.638 49.26,63.579 49.3,63.53L52.3,60.53L54.73,62.86ZM41.51,60.7L47,55.18L51.15,59.31L41.81,61.31C41.736,61.339 41.654,61.339 41.58,61.31C41.508,61.276 41.448,61.22 41.41,61.15C41.386,61.079 41.386,61.001 41.41,60.93C41.412,60.843 41.448,60.76 41.51,60.7ZM24.31,89.23C24.243,89.222 24.18,89.194 24.13,89.15C24.073,89.113 24.028,89.061 24,89C23.974,88.936 23.974,88.864 24,88.8C24.016,88.737 24.047,88.678 24.09,88.63L28.55,84.17L34.32,89.93L24.31,89.23ZM35.75,83.31C35.541,83.421 35.373,83.596 35.27,83.81C35.167,84.028 35.142,84.276 35.2,84.51L36.15,88.58C36.19,88.7 36.19,88.83 36.15,88.95C36.1,89.066 36.012,89.161 35.9,89.22C35.789,89.288 35.658,89.313 35.53,89.29C35.407,89.276 35.292,89.223 35.2,89.14L29.41,83.36L47.1,65.65L55.69,63.81L59.81,67.93C53.88,73.1 45.81,78.28 35.75,83.3L35.75,83.31ZM60.64,67.17L56.64,63.17L78.84,43.79C79.049,43.612 79.237,43.411 79.4,43.19C78.7,49.53 69.83,58.47 60.65,67.19L60.64,67.17ZM77.88,36.74C76.249,35.129 75.33,32.929 75.33,30.636C75.33,25.929 79.203,22.056 83.91,22.056C85.951,22.056 87.927,22.785 89.48,24.11L81.87,31.7C81.821,31.754 81.781,31.814 81.75,31.88C81.684,32.019 81.684,32.181 81.75,32.32C81.781,32.386 81.821,32.446 81.87,32.5L87.75,38.37C84.462,39.99 80.482,39.332 77.89,36.74L77.88,36.74ZM90.04,36.74C89.648,37.116 89.219,37.451 88.76,37.74L83.07,32.1L90.3,24.88C93.376,28.254 93.243,33.525 90,36.74L90.04,36.74Z" style="fill-rule:nonzero;"/>
    </g>
</svg>
