<?xml version="1.0" encoding="UTF-8" standalone="no"?>
<!DOCTYPE svg PUBLIC "-//W3C//DTD SVG 1.1//EN" "http://www.w3.org/Graphics/SVG/1.1/DTD/svg11.dtd">
<svg width="100%" height="100%" viewBox="0 0 120 120" version="1.1" xmlns="http://www.w3.org/2000/svg" xmlns:xlink="http://www.w3.org/1999/xlink" xml:space="preserve" xmlns:serif="http://www.serif.com/" style="fill-rule:evenodd;clip-rule:evenodd;stroke-linejoin:round;stroke-miterlimit:2;">
    <g transform="matrix(1,0,0,1,2.12132,2.12132)">
        <g transform="matrix(4.69795,0,0,4.69795,57.8787,57.8787)">
            <circle cx="0" cy="0" r="2.05"/>
        </g>
        <g transform="matrix(4.69795,0,0,4.69795,57.8787,57.8787)">
            <path d="M-6.573,3.795C-7.528,3.53 -8.37,3.209 -9.067,2.846C-10.575,2.061 -11.413,1.047 -11.413,-0C-11.413,-1.047 -10.575,-2.061 -9.067,-2.846C-8.37,-3.209 -7.528,-3.53 -6.573,-3.795C-6.821,-4.755 -6.964,-5.644 -6.998,-6.429C-7.072,-8.128 -6.614,-9.36 -5.707,-9.884C-4.799,-10.408 -3.503,-10.189 -2.069,-9.276C-1.406,-8.853 -0.707,-8.284 -0,-7.59C0.707,-8.284 1.406,-8.853 2.069,-9.276C3.503,-10.189 4.799,-10.408 5.707,-9.884C6.614,-9.36 7.072,-8.128 6.998,-6.429C6.964,-5.644 6.821,-4.755 6.573,-3.795C7.528,-3.53 8.37,-3.209 9.067,-2.846C10.575,-2.061 11.413,-1.047 11.413,0C11.413,1.047 10.575,2.061 9.067,2.846C8.37,3.209 7.528,3.53 6.573,3.795C6.821,4.755 6.964,5.644 6.998,6.429C7.072,8.128 6.614,9.36 5.707,9.884C4.799,10.408 3.503,10.189 2.069,9.276C1.406,8.853 0.707,8.284 -0,7.59C-0.707,8.284 -1.406,8.853 -2.069,9.276C-3.503,10.189 -4.799,10.408 -5.707,9.884C-6.614,9.36 -7.072,8.128 -6.998,6.429C-6.964,5.644 -6.821,4.755 -6.573,3.795ZM-6.349,-3.002C-7.242,-2.754 -8.031,-2.454 -8.686,-2.113C-9.3,-1.793 -9.792,-1.44 -10.128,-1.055C-10.418,-0.722 -10.587,-0.37 -10.587,-0C-10.587,0.37 -10.418,0.722 -10.128,1.055C-9.792,1.44 -9.3,1.793 -8.686,2.113C-8.031,2.454 -7.242,2.754 -6.349,3.002C-6.057,2.047 -5.67,1.036 -5.192,0C-5.67,-1.036 -6.057,-2.047 -6.349,-3.002ZM-0.574,-7C-1.236,-7.649 -1.89,-8.182 -2.513,-8.579C-3.097,-8.951 -3.649,-9.2 -4.15,-9.298C-4.584,-9.384 -4.973,-9.354 -5.293,-9.169C-5.614,-8.983 -5.835,-8.662 -5.978,-8.243C-6.143,-7.761 -6.203,-7.158 -6.173,-6.465C-6.141,-5.728 -6.006,-4.895 -5.775,-3.997C-4.801,-4.222 -3.732,-4.393 -2.596,-4.496C-1.938,-5.428 -1.256,-6.269 -0.574,-7ZM5.775,-3.997C6.006,-4.895 6.141,-5.728 6.173,-6.465C6.203,-7.158 6.143,-7.761 5.978,-8.243C5.835,-8.662 5.614,-8.983 5.293,-9.169C4.973,-9.354 4.584,-9.384 4.15,-9.298C3.649,-9.2 3.097,-8.951 2.513,-8.579C1.89,-8.182 1.236,-7.649 0.574,-7C1.256,-6.269 1.938,-5.428 2.596,-4.496C3.732,-4.393 4.801,-4.222 5.775,-3.997ZM6.349,3.002C7.242,2.754 8.031,2.454 8.686,2.113C9.3,1.793 9.792,1.44 10.128,1.055C10.418,0.722 10.587,0.37 10.587,0C10.587,-0.37 10.418,-0.722 10.128,-1.055C9.792,-1.44 9.3,-1.793 8.686,-2.113C8.031,-2.454 7.242,-2.754 6.349,-3.002C6.057,-2.047 5.67,-1.036 5.192,-0C5.67,1.036 6.057,2.047 6.349,3.002ZM0.574,7C1.236,7.649 1.89,8.182 2.513,8.579C3.097,8.951 3.649,9.2 4.15,9.298C4.584,9.384 4.973,9.354 5.293,9.169C5.614,8.983 5.835,8.662 5.978,8.243C6.143,7.761 6.203,7.158 6.173,6.465C6.141,5.728 6.006,4.895 5.775,3.997C4.801,4.222 3.732,4.393 2.596,4.496C1.938,5.428 1.256,6.269 0.574,7ZM-5.775,3.997C-6.006,4.895 -6.141,5.728 -6.173,6.465C-6.203,7.158 -6.143,7.761 -5.978,8.243C-5.835,8.662 -5.614,8.983 -5.293,9.169C-4.973,9.354 -4.584,9.384 -4.15,9.298C-3.649,9.2 -3.097,8.951 -2.513,8.579C-1.89,8.182 -1.236,7.649 -0.574,7C-1.256,6.269 -1.938,5.428 -2.596,4.496C-3.732,4.393 -4.801,4.222 -5.775,3.997ZM-3.2,-3.604C-4.031,-3.506 -4.819,-3.371 -5.55,-3.204C-5.329,-2.487 -5.052,-1.738 -4.721,-0.969C-4.495,-1.413 -4.253,-1.86 -3.995,-2.307C-3.737,-2.753 -3.472,-3.186 -3.2,-3.604ZM-4.721,0.969C-5.052,1.738 -5.329,2.487 -5.55,3.204C-4.819,3.371 -4.031,3.506 -3.2,3.604C-3.472,3.186 -3.737,2.753 -3.995,2.307C-4.253,1.86 -4.495,1.413 -4.721,0.969ZM1.521,-4.574C1.021,-5.244 0.51,-5.859 -0,-6.408C-0.51,-5.859 -1.021,-5.244 -1.521,-4.574C-1.024,-4.6 -0.516,-4.613 0,-4.613C0.516,-4.613 1.024,-4.6 1.521,-4.574ZM4.721,-0.969C5.052,-1.738 5.329,-2.487 5.55,-3.204C4.819,-3.371 4.031,-3.506 3.2,-3.604C3.472,-3.186 3.737,-2.753 3.995,-2.307C4.253,-1.86 4.495,-1.413 4.721,-0.969ZM3.2,3.604C4.031,3.506 4.819,3.371 5.55,3.204C5.329,2.487 5.052,1.738 4.721,0.969C4.495,1.413 4.253,1.86 3.995,2.307C3.737,2.753 3.472,3.186 3.2,3.604ZM-1.521,4.574C-1.021,5.244 -0.51,5.859 -0,6.408C0.51,5.859 1.021,5.244 1.521,4.574C1.024,4.6 0.516,4.613 0,4.613C-0.516,4.613 -1.024,4.6 -1.521,4.574ZM-2.14,-3.707C-2.532,-3.134 -2.913,-2.528 -3.28,-1.893C-3.646,-1.259 -3.98,-0.625 -4.28,0C-3.98,0.625 -3.646,1.259 -3.28,1.893C-2.913,2.528 -2.532,3.134 -2.14,3.707C-1.448,3.759 -0.733,3.787 0,3.787C0.733,3.787 1.448,3.759 2.14,3.707C2.532,3.134 2.913,2.528 3.28,1.893C3.646,1.259 3.98,0.625 4.28,-0C3.98,-0.625 3.646,-1.259 3.28,-1.893C2.913,-2.528 2.532,-3.134 2.14,-3.707C1.448,-3.759 0.733,-3.787 0,-3.787C-0.733,-3.787 -1.448,-3.759 -2.14,-3.707Z"/>
        </g>
    </g>
</svg>
