<?xml version="1.0" encoding="UTF-8" standalone="no"?>
<!DOCTYPE svg PUBLIC "-//W3C//DTD SVG 1.1//EN" "http://www.w3.org/Graphics/SVG/1.1/DTD/svg11.dtd">
<svg width="100%" height="100%" viewBox="0 0 108 108" version="1.1" xmlns="http://www.w3.org/2000/svg" xmlns:xlink="http://www.w3.org/1999/xlink" xml:space="preserve" xmlns:serif="http://www.serif.com/" style="fill-rule:evenodd;clip-rule:evenodd;stroke-linejoin:round;stroke-miterlimit:2;">
    <g transform="matrix(0.247001,0,0,0.247001,-45.2785,-45.2785)">
        <path d="M597.262,395.1L580.475,384.7C580.334,383.069 580.176,381.44 580,379.813L594.425,366.35C595.612,365.261 596.288,363.723 596.288,362.113C596.288,359.704 594.775,357.54 592.513,356.712L574.063,349.813C573.602,348.219 573.123,346.632 572.625,345.05L584.125,329.063C584.838,328.077 585.223,326.891 585.223,325.675C585.223,322.856 583.158,320.428 580.375,319.975L560.913,316.813C560.163,315.337 559.375,313.888 558.575,312.437L566.75,294.5C567.105,293.739 567.289,292.909 567.289,292.069C567.289,288.915 564.693,286.319 561.539,286.319C561.455,286.319 561.371,286.321 561.288,286.325L541.55,287.013C540.528,285.738 539.486,284.479 538.425,283.237L542.963,264C543.069,263.559 543.122,263.107 543.122,262.653C543.122,259.492 540.521,256.89 537.36,256.89C536.906,256.89 536.454,256.944 536.013,257.05L516.788,261.575C515.538,260.525 514.288,259.487 513,258.45L513.688,238.725C513.691,238.641 513.693,238.557 513.693,238.474C513.693,235.319 511.097,232.724 507.943,232.724C507.103,232.724 506.274,232.908 505.513,233.262L487.575,241.437C486.126,240.637 484.668,239.853 483.2,239.087L480.038,219.637C479.586,216.853 477.158,214.787 474.337,214.787C473.126,214.787 471.945,215.167 470.963,215.875L454.963,227.375C453.386,226.874 451.802,226.395 450.213,225.938L443.313,207.488C442.481,205.226 440.314,203.714 437.904,203.714C436.299,203.714 434.765,204.385 433.675,205.563L420.213,220.012C418.588,219.838 416.963,219.663 415.325,219.538L404.925,202.737C403.874,201.037 402.012,199.999 400.013,199.999C398.013,199.999 396.151,201.037 395.1,202.737L384.7,219.538C383.075,219.663 381.438,219.838 379.813,220.012L366.35,205.575C365.255,204.414 363.727,203.755 362.131,203.755C359.731,203.755 357.568,205.245 356.713,207.487L349.813,225.937C348.213,226.4 346.625,226.887 345.063,227.387L329.063,215.875C328.075,215.149 326.882,214.758 325.657,214.758C322.834,214.758 320.408,216.836 319.975,219.625L316.8,239.087C315.338,239.85 313.888,240.637 312.425,241.437L294.5,233.262C293.739,232.908 292.91,232.724 292.07,232.724C288.916,232.724 286.32,235.319 286.32,238.474C286.32,238.553 286.322,238.633 286.325,238.712L287.013,258.462C285.738,259.487 284.475,260.525 283.225,261.587L264,257.05C263.57,256.95 263.131,256.9 262.69,256.9C259.508,256.9 256.89,259.518 256.89,262.7C256.89,263.138 256.939,263.574 257.038,264L261.575,283.237C260.513,284.487 259.475,285.737 258.45,287.012L238.713,286.325C238.642,286.322 238.571,286.321 238.501,286.321C235.333,286.321 232.726,288.928 232.726,292.096C232.726,292.926 232.905,293.746 233.25,294.5L241.425,312.45C240.638,313.887 239.85,315.337 239.088,316.825L219.638,319.975C216.85,320.423 214.778,322.853 214.778,325.677C214.778,326.893 215.162,328.078 215.875,329.062L227.375,345.05C226.875,346.625 226.4,348.212 225.938,349.8L207.488,356.712C205.235,357.554 203.734,359.718 203.734,362.122C203.734,363.725 204.401,365.258 205.575,366.35L220.013,379.813C219.825,381.437 219.663,383.063 219.525,384.7L202.738,395.1C201.037,396.151 199.999,398.013 199.999,400.013C199.999,402.012 201.037,403.874 202.738,404.925L219.525,415.313C219.663,416.95 219.825,418.588 220.013,420.213L205.575,433.675C204.401,434.767 203.734,436.3 203.734,437.903C203.734,440.307 205.235,442.471 207.488,443.313L225.938,450.213C226.4,451.813 226.888,453.4 227.388,454.963L215.875,470.963C215.167,471.945 214.787,473.126 214.787,474.337C214.787,477.158 216.853,479.586 219.638,480.038L239.088,483.2C239.85,484.675 240.625,486.138 241.438,487.575L233.25,505.513C232.905,506.267 232.726,507.087 232.726,507.916C232.726,511.084 235.333,513.691 238.501,513.691C238.571,513.691 238.642,513.69 238.713,513.688L258.45,513C259.475,514.288 260.513,515.538 261.575,516.788L257.038,536.025C256.93,536.468 256.876,536.923 256.876,537.379C256.876,540.533 259.471,543.129 262.626,543.129C263.089,543.129 263.55,543.073 264,542.963L283.225,538.438C284.475,539.5 285.738,540.525 287.013,541.55L286.325,561.3C286.322,561.373 286.321,561.446 286.321,561.519C286.321,564.68 288.922,567.281 292.083,567.281C292.918,567.281 293.742,567.1 294.5,566.75L312.438,558.575C313.875,559.375 315.338,560.163 316.813,560.925L319.975,580.363C320.408,583.158 322.84,585.242 325.669,585.242C326.889,585.242 328.077,584.855 329.063,584.138L345.05,572.613C346.625,573.113 348.213,573.613 349.8,574.063L356.7,592.513C357.527,594.775 359.692,596.288 362.1,596.288C363.711,596.288 365.249,595.612 366.338,594.425L379.813,579.988C381.438,580.175 383.063,580.338 384.7,580.488L395.1,597.275C396.156,598.97 398.016,600.003 400.013,600.003C402.009,600.003 403.869,598.97 404.925,597.275L415.313,580.475C416.95,580.338 418.588,580.175 420.213,579.988L433.675,594.425C434.763,595.606 436.298,596.278 437.903,596.278C440.308,596.278 442.47,594.77 443.3,592.513L450.213,574.063C451.8,573.613 453.388,573.113 454.963,572.613L470.963,584.138C471.944,584.838 473.12,585.215 474.326,585.215C477.15,585.215 479.581,583.149 480.038,580.363L483.213,560.913C484.675,560.163 486.125,559.363 487.575,558.575L505.513,566.75C506.27,567.1 507.095,567.281 507.93,567.281C511.091,567.281 513.692,564.68 513.692,561.519C513.692,561.442 513.691,561.365 513.688,561.288L513,541.538C514.275,540.538 515.538,539.5 516.788,538.438L536.013,542.963C536.458,543.071 536.915,543.126 537.373,543.126C540.528,543.126 543.123,540.53 543.123,537.376C543.123,536.921 543.069,536.467 542.963,536.025L538.438,516.788C539.488,515.538 540.525,514.288 541.55,513L561.3,513.688C561.38,513.691 561.459,513.692 561.539,513.692C564.693,513.692 567.289,511.097 567.289,507.942C567.289,507.103 567.105,506.273 566.75,505.513L558.575,487.575C559.375,486.138 560.15,484.675 560.913,483.2L580.363,480.038C583.153,479.605 585.233,477.179 585.233,474.355C585.233,473.136 584.845,471.947 584.125,470.963L572.625,454.963C573.122,453.385 573.601,451.801 574.063,450.213L592.513,443.313C594.775,442.485 596.288,440.321 596.288,437.912C596.288,436.302 595.612,434.764 594.425,433.675L579.988,420.213C580.163,418.588 580.325,416.95 580.475,415.313L597.263,404.925C598.963,403.874 600.001,402.012 600.001,400.013C600.001,398.013 598.963,396.151 597.263,395.1ZM484.875,534.4C479.559,533.108 475.786,528.308 475.786,522.837C475.786,516.309 481.158,510.937 487.686,510.937C488.416,510.937 489.145,511.004 489.863,511.138C495.2,512.413 498.997,517.224 498.997,522.712C498.997,529.24 493.625,534.612 487.097,534.612C486.347,534.612 485.599,534.541 484.863,534.4L484.875,534.4ZM479.162,495.813C478.418,495.653 477.66,495.573 476.899,495.573C471.81,495.573 467.375,499.161 466.313,504.137L460.35,531.963C441.394,540.559 420.814,544.992 400,544.963C378,544.963 357.125,540.088 338.388,531.375L332.425,503.562C331.367,498.581 326.929,494.986 321.836,494.986C321.076,494.986 320.318,495.066 319.575,495.225L295.013,500.5C290.448,495.803 286.205,490.804 282.313,485.537L401.825,485.537C403.175,485.537 404.075,485.287 404.075,484.062L404.075,441.787C404.075,440.55 403.175,440.312 401.825,440.312L366.875,440.312L366.875,413.5L404.675,413.5C408.125,413.5 423.125,414.488 427.925,433.662C429.425,439.55 432.725,458.737 434.975,464.875C437.225,471.763 446.375,485.525 456.125,485.525L515.675,485.525C516.401,485.519 517.124,485.447 517.838,485.312C513.713,490.925 509.175,496.237 504.3,501.188L479.175,495.8L479.162,495.813ZM313.875,533.813C313.157,533.946 312.429,534.013 311.698,534.013C305.17,534.013 299.798,528.641 299.798,522.113C299.798,516.642 303.571,511.842 308.888,510.55C309.705,510.375 310.539,510.287 311.375,510.287C317.903,510.287 323.275,515.659 323.275,522.188C323.275,527.781 319.332,532.656 313.862,533.825L313.875,533.813ZM268.538,349.975C269.211,351.492 269.559,353.134 269.559,354.794C269.559,361.31 264.197,366.671 257.681,366.671C252.994,366.671 248.727,363.897 246.825,359.613C246.152,358.095 245.804,356.454 245.804,354.794C245.804,348.278 251.165,342.916 257.681,342.916C262.369,342.916 266.636,345.691 268.538,349.975ZM254.6,383.013L280.188,371.638C285.619,369.217 288.1,362.76 285.688,357.325L280.425,345.412L301.15,345.412L301.15,438.837L259.338,438.837C254.176,420.709 252.563,401.753 254.588,383.013L254.6,383.013ZM366.888,373.938L366.888,346.4L416.238,346.4C418.788,346.4 434.237,349.35 434.237,360.9C434.237,370.488 422.387,373.938 412.637,373.938L366.887,373.938ZM546.25,398.725C546.25,402.375 546.113,405.988 545.838,409.575L530.838,409.575C529.338,409.575 528.738,410.575 528.738,412.038L528.738,418.925C528.738,435.15 519.587,438.675 511.575,439.575C503.95,440.425 495.475,436.375 494.438,431.7C489.938,406.388 482.438,400.975 470.587,391.625C485.288,382.3 500.587,368.525 500.587,350.088C500.587,330.175 486.938,317.638 477.638,311.488C464.588,302.888 450.137,301.163 446.237,301.163L291.063,301.163C312.5,277.185 341.269,260.948 372.875,254.988L391.162,274.175C395.3,278.5 402.163,278.675 406.475,274.525L426.95,254.95C469.142,262.872 505.782,288.967 527.063,326.25L513.05,357.9C510.645,363.335 513.124,369.787 518.55,372.213L545.537,384.188C546,388.975 546.237,393.813 546.237,398.725L546.25,398.725ZM391.175,238.663C393.384,236.55 396.325,235.371 399.381,235.371C402.627,235.371 405.735,236.701 407.975,239.05C410.085,241.263 411.263,244.205 411.263,247.263C411.263,250.515 409.929,253.63 407.575,255.875C405.369,257.983 402.432,259.16 399.381,259.16C396.134,259.16 393.026,257.827 390.787,255.475C386.294,250.752 386.468,243.173 391.175,238.663ZM530.213,350.55C532.116,346.268 536.382,343.495 541.069,343.495C547.586,343.495 552.949,348.858 552.949,355.375C552.949,357.037 552.6,358.681 551.925,360.2C550.022,364.482 545.755,367.255 541.069,367.255C534.551,367.255 529.189,361.892 529.189,355.375C529.189,353.713 529.537,352.069 530.213,350.55Z" style="fill-rule:nonzero;"/>
    </g>
</svg>
