<?xml version="1.0" encoding="UTF-8" standalone="no"?>
<!DOCTYPE svg PUBLIC "-//W3C//DTD SVG 1.1//EN" "http://www.w3.org/Graphics/SVG/1.1/DTD/svg11.dtd">
<svg width="100%" height="100%" viewBox="0 0 111 111" version="1.1" xmlns="http://www.w3.org/2000/svg" xmlns:xlink="http://www.w3.org/1999/xlink" xml:space="preserve" xmlns:serif="http://www.serif.com/" style="fill-rule:evenodd;clip-rule:evenodd;stroke-linejoin:round;stroke-miterlimit:2;">
    <g transform="matrix(0.650473,0,0,0.650473,1.51076,4.76312)">
        <path d="M162.5,35.7C162.5,35.7 109.8,-4.1 68.9,5.2C67.7,5.5 66.4,5.8 65.3,6.2C59,8.2 54.3,11.7 51.4,15.9C50.8,16.7 50.4,17.6 49.9,18.4L34.8,44.1L60.9,49.2C71.2,56.6 85.7,59.7 98.1,56.5L144.6,65.6L162.5,35.7Z" style="fill:rgb(187,189,191);fill-rule:nonzero;"/>
    </g>
    <g transform="matrix(0.650473,0,0,0.650473,1.51076,4.76312)">
        <path d="M162.5,35.7C162.5,35.7 109.8,-4.1 68.9,5.2C67.7,5.5 66.4,5.8 65.3,6.2C59,8.2 54.3,11.7 51.4,15.9C50.8,16.7 50.4,17.6 49.9,18.4L34.8,44.1L60.9,49.2C71.2,56.6 85.7,59.7 98.1,56.5L144.6,65.6L162.5,35.7Z" style="fill:url(#_Linear1);fill-rule:nonzero;"/>
    </g>
    <g transform="matrix(0.650473,0,0,0.650473,1.51076,4.76312)">
        <path d="M51,35.2C49.8,35.5 48.5,35.8 47.4,36.2C30.7,41.6 25,57.2 34.6,70.9C44.2,84.6 65.5,91.4 82.2,86L144.6,65.8C144.6,65.7 91.9,25.9 51,35.2Z" style="fill:rgb(146,148,151);fill-rule:nonzero;"/>
    </g>
    <g transform="matrix(0.650473,0,0,0.650473,1.51076,4.76312)">
        <path d="M51,35.2C49.8,35.5 48.5,35.8 47.4,36.2C30.7,41.6 25,57.2 34.6,70.9C44.2,84.6 65.5,91.4 82.2,86L144.6,65.8C144.6,65.7 91.9,25.9 51,35.2Z" style="fill:url(#_Linear2);fill-rule:nonzero;"/>
    </g>
    <g transform="matrix(0.650473,0,0,0.650473,1.51076,4.76312)">
        <path d="M133.1,80.2C123.5,66.5 102.2,59.7 85.5,65.1L23.1,85.3L3.5,120.3L115.1,139.4L135.1,103.8C139.1,96.8 138.7,88.2 133.1,80.2Z" style="fill:url(#_Linear3);fill-rule:nonzero;"/>
    </g>
    <g transform="matrix(0.650473,0,0,0.650473,1.51076,4.76312)">
        <path d="M113.5,115.1C103.9,101.4 82.6,94.6 65.9,100L3.5,120.3C3.5,120.3 56.2,160.1 97.1,150.8C98.3,150.5 99.6,150.2 100.7,149.8C117.4,144.4 123.1,128.8 113.5,115.1Z" style="fill:url(#_Linear4);fill-rule:nonzero;"/>
    </g>
    <defs>
        <linearGradient id="_Linear1" x1="0" y1="0" x2="1" y2="0" gradientUnits="userSpaceOnUse" gradientTransform="matrix(124.514,60.44,-60.44,124.514,27.028,3.451)"><stop offset="0" style="stop-color:rgb(187,189,191);stop-opacity:0.29"/><stop offset="0.12" style="stop-color:rgb(187,189,191);stop-opacity:0.29"/><stop offset="0.3" style="stop-color:rgb(241,241,242);stop-opacity:0.29"/><stop offset="1" style="stop-color:rgb(208,210,211);stop-opacity:0.29"/></linearGradient>
        <linearGradient id="_Linear2" x1="0" y1="0" x2="1" y2="0" gradientUnits="userSpaceOnUse" gradientTransform="matrix(-21.798,72.66,-72.66,-21.798,95.307,32.988)"><stop offset="0" style="stop-color:rgb(187,189,191);stop-opacity:0.34"/><stop offset="0.48" style="stop-color:rgb(146,148,151);stop-opacity:0.34"/><stop offset="1" style="stop-color:rgb(88,89,91);stop-opacity:0.34"/></linearGradient>
        <linearGradient id="_Linear3" x1="0" y1="0" x2="1" y2="0" gradientUnits="userSpaceOnUse" gradientTransform="matrix(125.835,85.541,-85.541,125.835,17.932,64.628)"><stop offset="0" style="stop-color:rgb(88,89,91);stop-opacity:1"/><stop offset="0.54" style="stop-color:rgb(146,148,151);stop-opacity:1"/><stop offset="1" style="stop-color:rgb(88,89,91);stop-opacity:1"/></linearGradient>
        <linearGradient id="_Linear4" x1="0" y1="0" x2="1" y2="0" gradientUnits="userSpaceOnUse" gradientTransform="matrix(-50.862,186.275,-186.275,-50.862,74.763,74.909)"><stop offset="0" style="stop-color:rgb(67,119,187);stop-opacity:1"/><stop offset="0" style="stop-color:rgb(128,129,132);stop-opacity:1"/><stop offset="0.48" style="stop-color:rgb(64,64,65);stop-opacity:1"/><stop offset="1" style="stop-color:rgb(35,31,32);stop-opacity:1"/></linearGradient>
    </defs>
</svg>
