<?xml version="1.0" encoding="UTF-8" standalone="no"?>
<!DOCTYPE svg PUBLIC "-//W3C//DTD SVG 1.1//EN" "http://www.w3.org/Graphics/SVG/1.1/DTD/svg11.dtd">
<svg width="100%" height="100%" viewBox="0 0 103 103" version="1.1" xmlns="http://www.w3.org/2000/svg" xmlns:xlink="http://www.w3.org/1999/xlink" xml:space="preserve" xmlns:serif="http://www.serif.com/" style="fill-rule:evenodd;clip-rule:evenodd;stroke-linejoin:round;stroke-miterlimit:2;">
    <g transform="matrix(1,0,0,1,2.12132,2.12132)">
        <g transform="matrix(3.13043,0,0,3.13043,2,2)">
            <path d="M14.4,11.3C14.4,13 13,14.4 11.3,14.4C9.6,14.4 8.2,13 8.2,11.3C8.2,9.6 9.6,8.2 11.3,8.2C13,8.2 14.4,9.6 14.4,11.3ZM11.3,15.6C9.6,15.6 8.2,17 8.2,18.7C8.2,20.4 9.6,21.8 11.3,21.8C13,21.8 14.4,20.4 14.4,18.7C14.4,17 13,15.6 11.3,15.6ZM18.7,15.6C17,15.6 15.6,17 15.6,18.7C15.6,20.4 17,21.8 18.7,21.8C20.4,21.8 21.8,20.4 21.8,18.7C21.8,17 20.4,15.6 18.7,15.6ZM18.7,8.2C17,8.2 15.6,9.6 15.6,11.3C15.6,13 17,14.4 18.7,14.4C20.4,14.4 21.8,13 21.8,11.3C21.8,9.6 20.4,8.2 18.7,8.2Z" style="fill:rgb(0,5,0);fill-rule:nonzero;"/>
        </g>
        <g transform="matrix(3.13043,0,0,3.13043,2,2)">
            <path d="M30,15C30,23.3 23.3,30 15,30C6.7,30 0,23.3 0,15C0,6.7 6.7,0 15,0C23.3,0 30,6.7 30,15ZM26,15C26,8.9 21.1,4 15,4C8.9,4 4,8.9 4,15C4,21.1 8.9,26 15,26C21.1,26 26,21.1 26,15Z" style="fill:rgb(0,5,0);fill-rule:nonzero;"/>
        </g>
    </g>
</svg>
