<?xml version="1.0" encoding="UTF-8" standalone="no"?>
<!DOCTYPE svg PUBLIC "-//W3C//DTD SVG 1.1//EN" "http://www.w3.org/Graphics/SVG/1.1/DTD/svg11.dtd">
<svg width="100%" height="100%" viewBox="0 0 108 108" version="1.1" xmlns="http://www.w3.org/2000/svg" xmlns:xlink="http://www.w3.org/1999/xlink" xml:space="preserve" xmlns:serif="http://www.serif.com/" style="fill-rule:evenodd;clip-rule:evenodd;stroke-linejoin:round;stroke-miterlimit:2;">
    <g transform="matrix(0.0840234,0,0,0.0840234,9.36399,9.36399)">
        <path d="M1052,71.409L1052,980.591C1052,1020 1020,1052 980.591,1052L71.409,1052C31.997,1052 0,1020 0,980.591L0,71.409C0,31.997 31.997,0 71.409,0L980.591,0C1020,0 1052,31.997 1052,71.409ZM608.604,822.336L608.604,935.236C626.895,944.638 648.527,951.697 673.502,956.398C698.476,961.107 724.798,963.457 752.47,963.457C779.437,963.457 805.056,960.874 829.323,955.698C853.6,950.522 874.874,941.998 893.17,930.117C911.458,918.236 925.939,902.717 936.613,883.544C947.278,864.378 952.615,840.681 952.615,812.458C952.615,791.995 949.564,774.061 943.471,758.655C937.369,743.249 928.579,729.549 917.085,717.553C905.598,705.558 891.818,694.798 875.76,685.272C859.693,675.747 841.582,666.75 821.41,658.283C806.638,652.168 793.389,646.229 781.664,640.467C769.939,634.704 759.973,628.824 751.766,622.827C743.558,616.828 737.227,610.478 732.771,603.775C728.316,597.072 726.088,589.486 726.088,581.019C726.088,573.257 728.081,566.26 732.068,560.027C736.055,553.795 741.683,548.443 748.952,543.974C756.221,539.506 765.132,536.037 775.685,533.567C786.237,531.097 797.962,529.862 810.859,529.862C820.243,529.862 830.144,530.568 840.584,531.979C851.016,533.39 861.512,535.566 872.065,538.507C882.618,541.446 892.872,545.15 902.846,549.619C912.811,554.088 922.011,559.263 930.455,565.143L930.455,459.655C913.334,453.069 894.635,448.189 874.351,445.014C854.067,441.838 830.796,440.251 804.528,440.251C777.795,440.251 752.47,443.132 728.55,448.894C704.632,454.657 683.585,463.653 665.411,475.884C647.237,488.115 632.874,503.696 622.322,522.63C611.77,541.564 606.493,564.202 606.493,590.545C606.493,624.179 616.166,652.873 635.513,676.628C654.859,700.384 684.23,720.494 723.626,736.958C739.103,743.308 753.525,749.542 766.891,755.657C780.257,761.772 791.807,768.122 801.538,774.708C811.27,781.294 818.947,788.467 824.574,796.228C830.208,803.99 833.018,812.81 833.018,822.689C833.018,829.983 831.263,836.745 827.745,842.975C824.228,849.205 818.891,854.614 811.739,859.202C804.587,863.791 795.676,867.381 785.006,869.964C774.336,872.548 761.849,873.844 747.545,873.844C723.156,873.844 699.003,869.554 675.084,860.965C651.166,852.385 629.006,839.506 608.604,822.336ZM418.965,541.305L566.247,541.305L566.247,448.3L155.731,448.3L155.731,541.305L302.292,541.305L302.292,955.408L418.965,955.408L418.965,541.305Z"/>
    </g>
</svg>
