<?xml version="1.0" encoding="UTF-8" standalone="no"?>
<!DOCTYPE svg PUBLIC "-//W3C//DTD SVG 1.1//EN" "http://www.w3.org/Graphics/SVG/1.1/DTD/svg11.dtd">
<svg width="100%" height="100%" viewBox="0 0 250 148" version="1.1" xmlns="http://www.w3.org/2000/svg" xmlns:xlink="http://www.w3.org/1999/xlink" xml:space="preserve" xmlns:serif="http://www.serif.com/" style="fill-rule:evenodd;clip-rule:evenodd;stroke-linejoin:round;stroke-miterlimit:2;">
    <g>
        <g>
            <path d="M92.286,0.237L92.286,82.941C92.286,83.072 92.18,83.178 92.049,83.178L83.281,83.178C83.15,83.178 83.044,83.072 83.044,82.941L83.044,0.237C83.044,0.106 83.15,0 83.281,0L92.049,0C92.18,0 92.286,0.106 92.286,0.237Z" style="fill:rgb(36,63,34);"/>
            <path d="M110.771,0.237L110.771,82.941C110.771,83.072 110.665,83.178 110.534,83.178L101.766,83.178C101.635,83.178 101.529,83.072 101.529,82.941L101.529,0.237C101.529,0.106 101.635,0 101.766,0L110.534,0C110.665,0 110.771,0.106 110.771,0.237Z" style="fill:rgb(36,63,34);"/>
            <path d="M129.256,0.237L129.256,82.941C129.256,83.072 129.15,83.178 129.02,83.178L120.251,83.178C120.12,83.178 120.014,83.072 120.014,82.941L120.014,0.237C120.014,0.106 120.12,0 120.251,0L129.02,0C129.15,0 129.256,0.106 129.256,0.237Z" style="fill:rgb(36,63,34);"/>
            <path d="M147.737,0.237L147.737,82.941C147.737,83.072 147.631,83.178 147.5,83.178L138.731,83.178C138.601,83.178 138.495,83.072 138.495,82.941L138.495,0.237C138.495,0.106 138.601,0 138.731,0L147.5,0C147.631,0 147.737,0.106 147.737,0.237Z" style="fill:rgb(36,63,34);"/>
            <path d="M166.226,32.586L166.226,50.596C166.226,50.727 166.12,50.833 165.989,50.833L157.221,50.833C157.09,50.833 156.984,50.727 156.984,50.596L156.984,32.586C156.984,32.455 157.09,32.349 157.221,32.349L165.989,32.349C166.12,32.349 166.226,32.455 166.226,32.586Z" style="fill:rgb(36,63,34);"/>
        </g>
        <path d="M16.421,116.492C14.714,116.492 13.185,116.797 11.833,117.409C10.48,117.989 9.321,118.858 8.355,120.017C7.422,121.176 6.697,122.577 6.182,124.219C5.699,125.861 5.457,127.712 5.457,129.773C5.457,132.478 5.86,134.828 6.665,136.824C7.47,138.788 8.677,140.302 10.287,141.364C11.897,142.427 13.925,142.958 16.372,142.958C17.854,142.958 19.27,142.829 20.623,142.572C22.007,142.282 23.408,141.912 24.824,141.461L24.824,145.952C23.472,146.468 22.088,146.838 20.671,147.063C19.254,147.321 17.612,147.45 15.745,147.45C12.235,147.45 9.305,146.725 6.955,145.276C4.636,143.827 2.898,141.767 1.739,139.094C0.58,136.422 0,133.299 0,129.725C0,127.117 0.354,124.734 1.063,122.577C1.803,120.388 2.866,118.504 4.25,116.926C5.635,115.349 7.341,114.141 9.369,113.304C11.43,112.435 13.797,112 16.469,112C18.208,112 19.914,112.193 21.588,112.58C23.263,112.934 24.776,113.449 26.128,114.125L24.196,118.472C23.07,117.957 21.846,117.506 20.526,117.119C19.238,116.701 17.87,116.492 16.421,116.492ZM36.793,146.967L31.673,146.967L31.673,110.261L36.793,110.261L36.793,146.967ZM49.952,120.935L49.952,146.967L44.832,146.967L44.832,120.935L49.952,120.935ZM47.44,111.034C48.213,111.034 48.889,111.259 49.469,111.71C50.048,112.161 50.338,112.918 50.338,113.98C50.338,115.011 50.048,115.767 49.469,116.25C48.889,116.701 48.213,116.926 47.44,116.926C46.603,116.926 45.895,116.701 45.315,116.25C44.768,115.767 44.494,115.011 44.494,113.98C44.494,112.918 44.768,112.161 45.315,111.71C45.895,111.259 46.603,111.034 47.44,111.034ZM68.471,147.45C66.089,147.45 63.996,146.983 62.193,146.049C60.39,145.115 58.989,143.666 57.991,141.702C56.993,139.706 56.494,137.179 56.494,134.12C56.494,130.9 57.025,128.292 58.088,126.296C59.182,124.3 60.647,122.835 62.483,121.901C64.35,120.935 66.475,120.452 68.858,120.452C70.307,120.452 71.659,120.613 72.915,120.935C74.203,121.225 75.265,121.563 76.102,121.949L74.557,126.103C73.655,125.748 72.689,125.443 71.659,125.185C70.661,124.927 69.711,124.799 68.809,124.799C67.2,124.799 65.863,125.153 64.801,125.861C63.771,126.537 62.998,127.568 62.483,128.952C62,130.304 61.758,132.011 61.758,134.071C61.758,136.036 62.016,137.694 62.531,139.046C63.046,140.398 63.803,141.429 64.801,142.137C65.831,142.813 67.103,143.151 68.616,143.151C70.065,143.151 71.337,142.99 72.432,142.668C73.526,142.346 74.557,141.928 75.523,141.413L75.523,145.856C74.589,146.403 73.575,146.806 72.48,147.063C71.385,147.321 70.049,147.45 68.471,147.45ZM86.739,128.614C86.739,129.29 86.706,130.063 86.642,130.932C86.61,131.802 86.562,132.606 86.497,133.347L86.642,133.347C86.9,133.025 87.206,132.639 87.56,132.188C87.946,131.705 88.332,131.222 88.719,130.739C89.105,130.256 89.459,129.837 89.781,129.483L97.75,120.935L103.691,120.935L93.21,132.091L104.367,146.967L98.33,146.967L89.733,135.327L86.739,137.839L86.739,146.967L81.668,146.967L81.668,110.261L86.739,110.261L86.739,128.614ZM136.126,146.967L130.91,146.967L130.91,131.222L114.441,131.222L114.441,146.967L109.225,146.967L109.225,112.483L114.441,112.483L114.441,126.779L130.91,126.779L130.91,112.483L136.126,112.483L136.126,146.967ZM167.714,133.927C167.714,136.084 167.424,138 166.845,139.674C166.265,141.348 165.444,142.765 164.382,143.924C163.319,145.083 162.031,145.968 160.518,146.58C159.005,147.16 157.298,147.45 155.399,147.45C153.66,147.45 152.05,147.16 150.569,146.58C149.088,145.968 147.8,145.083 146.705,143.924C145.643,142.765 144.806,141.348 144.194,139.674C143.582,138 143.276,136.068 143.276,133.878C143.276,131.013 143.759,128.582 144.725,126.586C145.723,124.589 147.14,123.076 148.975,122.046C150.843,120.983 153.032,120.452 155.544,120.452C157.926,120.452 160.019,120.983 161.822,122.046C163.657,123.076 165.09,124.589 166.12,126.586C167.183,128.582 167.714,131.029 167.714,133.927ZM148.541,133.927C148.541,135.858 148.782,137.533 149.265,138.949C149.748,140.334 150.505,141.396 151.535,142.137C152.565,142.878 153.885,143.248 155.495,143.248C157.105,143.248 158.425,142.878 159.456,142.137C160.486,141.396 161.243,140.334 161.726,138.949C162.208,137.533 162.45,135.858 162.45,133.927C162.45,131.93 162.192,130.256 161.677,128.904C161.194,127.551 160.438,126.521 159.407,125.813C158.409,125.072 157.089,124.702 155.447,124.702C153.032,124.702 151.277,125.507 150.183,127.117C149.088,128.727 148.541,130.997 148.541,133.927ZM196.613,120.935L196.613,146.967L192.508,146.967L191.784,143.538L191.542,143.538C190.995,144.439 190.287,145.18 189.417,145.759C188.548,146.339 187.598,146.757 186.568,147.015C185.538,147.305 184.475,147.45 183.38,147.45C181.352,147.45 179.629,147.128 178.213,146.484C176.828,145.807 175.766,144.777 175.025,143.393C174.317,141.976 173.963,140.173 173.963,137.983L173.963,120.935L179.13,120.935L179.13,137.211C179.13,139.239 179.549,140.752 180.386,141.751C181.255,142.749 182.591,143.248 184.394,143.248C186.198,143.248 187.614,142.894 188.645,142.185C189.675,141.477 190.399,140.447 190.818,139.094C191.269,137.71 191.494,136.052 191.494,134.12L191.494,120.935L196.613,120.935ZM221.915,139.626C221.915,141.332 221.497,142.765 220.66,143.924C219.823,145.083 218.615,145.968 217.037,146.58C215.46,147.16 213.56,147.45 211.339,147.45C209.503,147.45 207.926,147.305 206.605,147.015C205.318,146.757 204.126,146.371 203.032,145.856L203.032,141.364C204.191,141.912 205.527,142.411 207.04,142.861C208.553,143.28 210.035,143.489 211.483,143.489C213.415,143.489 214.8,143.183 215.637,142.572C216.506,141.96 216.941,141.139 216.941,140.109C216.941,139.529 216.78,139.014 216.458,138.563C216.136,138.08 215.524,137.597 214.623,137.114C213.753,136.599 212.465,136.019 210.759,135.375C209.117,134.699 207.716,134.039 206.557,133.395C205.398,132.719 204.513,131.93 203.901,131.029C203.289,130.095 202.983,128.904 202.983,127.455C202.983,125.201 203.885,123.478 205.688,122.287C207.523,121.064 209.938,120.452 212.932,120.452C214.51,120.452 215.991,120.613 217.376,120.935C218.792,121.225 220.161,121.675 221.481,122.287L219.79,126.199C219.05,125.845 218.277,125.555 217.472,125.33C216.699,125.072 215.911,124.863 215.106,124.702C214.333,124.541 213.528,124.461 212.691,124.461C211.145,124.461 209.97,124.702 209.165,125.185C208.36,125.668 207.958,126.344 207.958,127.213C207.958,127.825 208.135,128.356 208.489,128.807C208.875,129.258 209.535,129.709 210.469,130.159C211.403,130.61 212.675,131.158 214.285,131.802C215.894,132.413 217.263,133.041 218.39,133.685C219.549,134.329 220.418,135.118 220.998,136.052C221.61,136.985 221.915,138.177 221.915,139.626ZM238.258,120.452C240.544,120.452 242.508,120.935 244.151,121.901C245.793,122.835 247.048,124.187 247.918,125.958C248.819,127.729 249.27,129.821 249.27,132.236L249.27,135.037L231.787,135.037C231.851,137.71 232.543,139.754 233.863,141.171C235.216,142.588 237.099,143.296 239.514,143.296C241.188,143.296 242.669,143.151 243.957,142.861C245.277,142.539 246.63,142.073 248.014,141.461L248.014,145.711C246.726,146.29 245.406,146.725 244.054,147.015C242.734,147.305 241.156,147.45 239.321,147.45C236.809,147.45 234.588,146.951 232.656,145.952C230.724,144.954 229.211,143.473 228.116,141.509C227.054,139.513 226.522,137.066 226.522,134.168C226.522,131.238 227.005,128.759 227.971,126.73C228.969,124.702 230.338,123.156 232.076,122.094C233.847,120.999 235.908,120.452 238.258,120.452ZM238.258,124.412C236.423,124.412 234.942,125.008 233.815,126.199C232.72,127.39 232.076,129.081 231.883,131.27L244.151,131.27C244.151,129.918 243.941,128.727 243.523,127.696C243.104,126.666 242.46,125.861 241.591,125.282C240.721,124.702 239.611,124.412 238.258,124.412Z" style="fill:rgb(36,63,34);fill-rule:nonzero;"/>
    </g>
</svg>
