<?xml version="1.0" encoding="UTF-8" standalone="no"?>
<!DOCTYPE svg PUBLIC "-//W3C//DTD SVG 1.1//EN" "http://www.w3.org/Graphics/SVG/1.1/DTD/svg11.dtd">
<svg width="100%" height="100%" viewBox="0 0 250 148" version="1.1" xmlns="http://www.w3.org/2000/svg" xmlns:xlink="http://www.w3.org/1999/xlink" xml:space="preserve" xmlns:serif="http://www.serif.com/" style="fill-rule:evenodd;clip-rule:evenodd;stroke-linejoin:round;stroke-miterlimit:2;">
    <g transform="matrix(0.626674,0,0,0.626674,-1153.72,-1022.24)">
        <g transform="matrix(6.55477,0,0,6.55477,1955.78,1566.48)">
            <path d="M4.958,9.933L4.958,30.067C4.958,30.098 4.932,30.124 4.901,30.124L2.766,30.124C2.734,30.124 2.708,30.098 2.708,30.067L2.708,9.933C2.708,9.901 2.734,9.875 2.766,9.875L4.901,9.875C4.932,9.875 4.958,9.901 4.958,9.933Z"/>
            <g transform="matrix(1,0,0,1,-1.5e-05,0)">
                <path d="M9.458,9.933L9.458,30.067C9.458,30.098 9.433,30.124 9.401,30.124L7.266,30.124C7.234,30.124 7.209,30.098 7.209,30.067L7.209,9.933C7.209,9.901 7.234,9.875 7.266,9.875L9.401,9.875C9.433,9.875 9.458,9.901 9.458,9.933Z"/>
            </g>
            <path d="M13.959,9.933L13.959,30.067C13.959,30.098 13.933,30.124 13.901,30.124L11.766,30.124C11.734,30.124 11.709,30.098 11.709,30.067L11.709,9.933C11.709,9.901 11.734,9.875 11.766,9.875L13.901,9.875C13.933,9.875 13.959,9.901 13.959,9.933Z"/>
            <path d="M18.458,9.933L18.458,30.067C18.458,30.098 18.432,30.124 18.4,30.124L16.265,30.124C16.233,30.124 16.208,30.098 16.208,30.067L16.208,9.933C16.208,9.901 16.233,9.875 16.265,9.875L18.4,9.875C18.432,9.875 18.458,9.901 18.458,9.933Z"/>
            <path d="M22.959,17.808L22.959,22.192C22.959,22.224 22.933,22.25 22.901,22.25L20.766,22.25C20.735,22.25 20.709,22.224 20.709,22.192L20.709,17.808C20.709,17.776 20.735,17.75 20.766,17.75L22.901,17.75C22.933,17.75 22.959,17.776 22.959,17.808Z"/>
        </g>
        <g transform="matrix(4.28154,0,0,4.28154,1695.81,1752.27)">
            <path d="M40.033,15.142C39.397,15.142 38.827,15.256 38.323,15.484C37.819,15.7 37.387,16.024 37.027,16.456C36.679,16.888 36.409,17.41 36.217,18.022C36.037,18.634 35.947,19.324 35.947,20.092C35.947,21.1 36.097,21.976 36.397,22.72C36.697,23.452 37.147,24.016 37.747,24.412C38.347,24.808 39.103,25.006 40.015,25.006C40.567,25.006 41.095,24.958 41.599,24.862C42.115,24.754 42.637,24.616 43.165,24.448L43.165,26.122C42.661,26.314 42.145,26.452 41.617,26.536C41.089,26.632 40.477,26.68 39.781,26.68C38.473,26.68 37.381,26.41 36.505,25.87C35.641,25.33 34.993,24.562 34.561,23.566C34.129,22.57 33.913,21.406 33.913,20.074C33.913,19.102 34.045,18.214 34.309,17.41C34.585,16.594 34.981,15.892 35.497,15.304C36.013,14.716 36.649,14.266 37.405,13.954C38.173,13.63 39.055,13.468 40.051,13.468C40.699,13.468 41.335,13.54 41.959,13.684C42.583,13.816 43.147,14.008 43.651,14.26L42.931,15.88C42.511,15.688 42.055,15.52 41.563,15.376C41.083,15.22 40.573,15.142 40.033,15.142ZM47.626,26.5L45.718,26.5L45.718,12.82L47.626,12.82L47.626,26.5ZM52.53,16.798L52.53,26.5L50.622,26.5L50.622,16.798L52.53,16.798ZM51.594,13.108C51.882,13.108 52.134,13.192 52.35,13.36C52.566,13.528 52.674,13.81 52.674,14.206C52.674,14.59 52.566,14.872 52.35,15.052C52.134,15.22 51.882,15.304 51.594,15.304C51.282,15.304 51.018,15.22 50.802,15.052C50.598,14.872 50.496,14.59 50.496,14.206C50.496,13.81 50.598,13.528 50.802,13.36C51.018,13.192 51.282,13.108 51.594,13.108ZM59.433,26.68C58.545,26.68 57.765,26.506 57.093,26.158C56.421,25.81 55.899,25.27 55.527,24.538C55.155,23.794 54.969,22.852 54.969,21.712C54.969,20.512 55.167,19.54 55.563,18.796C55.971,18.052 56.517,17.506 57.201,17.158C57.897,16.798 58.689,16.618 59.577,16.618C60.117,16.618 60.621,16.678 61.089,16.798C61.569,16.906 61.965,17.032 62.277,17.176L61.701,18.724C61.365,18.592 61.005,18.478 60.621,18.382C60.249,18.286 59.895,18.238 59.559,18.238C58.959,18.238 58.461,18.37 58.065,18.634C57.681,18.886 57.393,19.27 57.201,19.786C57.021,20.29 56.931,20.926 56.931,21.694C56.931,22.426 57.027,23.044 57.219,23.548C57.411,24.052 57.693,24.436 58.065,24.7C58.449,24.952 58.923,25.078 59.487,25.078C60.027,25.078 60.501,25.018 60.909,24.898C61.317,24.778 61.701,24.622 62.061,24.43L62.061,26.086C61.713,26.29 61.335,26.44 60.927,26.536C60.519,26.632 60.021,26.68 59.433,26.68ZM66.241,19.66C66.241,19.912 66.229,20.2 66.205,20.524C66.193,20.848 66.175,21.148 66.151,21.424L66.205,21.424C66.301,21.304 66.415,21.16 66.547,20.992C66.691,20.812 66.835,20.632 66.979,20.452C67.123,20.272 67.255,20.116 67.375,19.984L70.345,16.798L72.559,16.798L68.653,20.956L72.811,26.5L70.561,26.5L67.357,22.162L66.241,23.098L66.241,26.5L64.351,26.5L64.351,12.82L66.241,12.82L66.241,19.66ZM84.647,26.5L82.704,26.5L82.704,20.632L76.566,20.632L76.566,26.5L74.622,26.5L74.622,13.648L76.566,13.648L76.566,18.976L82.704,18.976L82.704,13.648L84.647,13.648L84.647,26.5ZM96.42,21.64C96.42,22.444 96.312,23.158 96.096,23.782C95.88,24.406 95.574,24.934 95.178,25.366C94.782,25.798 94.302,26.128 93.738,26.356C93.174,26.572 92.538,26.68 91.83,26.68C91.182,26.68 90.582,26.572 90.03,26.356C89.478,26.128 88.998,25.798 88.59,25.366C88.194,24.934 87.882,24.406 87.654,23.782C87.426,23.158 87.312,22.438 87.312,21.622C87.312,20.554 87.492,19.648 87.852,18.904C88.224,18.16 88.752,17.596 89.436,17.212C90.132,16.816 90.948,16.618 91.884,16.618C92.772,16.618 93.552,16.816 94.224,17.212C94.908,17.596 95.442,18.16 95.826,18.904C96.222,19.648 96.42,20.56 96.42,21.64ZM89.274,21.64C89.274,22.36 89.364,22.984 89.544,23.512C89.724,24.028 90.006,24.424 90.39,24.7C90.774,24.976 91.266,25.114 91.866,25.114C92.466,25.114 92.958,24.976 93.342,24.7C93.726,24.424 94.008,24.028 94.188,23.512C94.368,22.984 94.458,22.36 94.458,21.64C94.458,20.896 94.362,20.272 94.17,19.768C93.99,19.264 93.708,18.88 93.324,18.616C92.952,18.34 92.46,18.202 91.848,18.202C90.948,18.202 90.294,18.502 89.886,19.102C89.478,19.702 89.274,20.548 89.274,21.64ZM107.191,16.798L107.191,26.5L105.661,26.5L105.391,25.222L105.301,25.222C105.097,25.558 104.833,25.834 104.509,26.05C104.185,26.266 103.831,26.422 103.447,26.518C103.063,26.626 102.667,26.68 102.259,26.68C101.503,26.68 100.861,26.56 100.333,26.32C99.817,26.068 99.421,25.684 99.145,25.168C98.881,24.64 98.749,23.968 98.749,23.152L98.749,16.798L100.675,16.798L100.675,22.864C100.675,23.62 100.831,24.184 101.143,24.556C101.467,24.928 101.965,25.114 102.637,25.114C103.309,25.114 103.837,24.982 104.221,24.718C104.605,24.454 104.875,24.07 105.031,23.566C105.199,23.05 105.283,22.432 105.283,21.712L105.283,16.798L107.191,16.798ZM116.621,23.764C116.621,24.4 116.465,24.934 116.153,25.366C115.841,25.798 115.391,26.128 114.803,26.356C114.215,26.572 113.507,26.68 112.679,26.68C111.995,26.68 111.407,26.626 110.915,26.518C110.435,26.422 109.991,26.278 109.583,26.086L109.583,24.412C110.015,24.616 110.513,24.802 111.077,24.97C111.641,25.126 112.193,25.204 112.733,25.204C113.453,25.204 113.969,25.09 114.281,24.862C114.605,24.634 114.767,24.328 114.767,23.944C114.767,23.728 114.707,23.536 114.587,23.368C114.467,23.188 114.239,23.008 113.903,22.828C113.579,22.636 113.099,22.42 112.463,22.18C111.851,21.928 111.329,21.682 110.897,21.442C110.465,21.19 110.135,20.896 109.907,20.56C109.679,20.212 109.565,19.768 109.565,19.228C109.565,18.388 109.901,17.746 110.573,17.302C111.257,16.846 112.157,16.618 113.273,16.618C113.861,16.618 114.413,16.678 114.929,16.798C115.457,16.906 115.967,17.074 116.459,17.302L115.829,18.76C115.553,18.628 115.265,18.52 114.965,18.436C114.677,18.34 114.383,18.262 114.083,18.202C113.795,18.142 113.495,18.112 113.183,18.112C112.607,18.112 112.169,18.202 111.869,18.382C111.569,18.562 111.419,18.814 111.419,19.138C111.419,19.366 111.485,19.564 111.617,19.732C111.761,19.9 112.007,20.068 112.355,20.236C112.703,20.404 113.177,20.608 113.777,20.848C114.377,21.076 114.887,21.31 115.307,21.55C115.739,21.79 116.063,22.084 116.279,22.432C116.507,22.78 116.621,23.224 116.621,23.764ZM122.712,16.618C123.564,16.618 124.296,16.798 124.908,17.158C125.52,17.506 125.988,18.01 126.312,18.67C126.648,19.33 126.816,20.11 126.816,21.01L126.816,22.054L120.3,22.054C120.324,23.05 120.582,23.812 121.074,24.34C121.578,24.868 122.28,25.132 123.18,25.132C123.804,25.132 124.356,25.078 124.836,24.97C125.328,24.85 125.832,24.676 126.348,24.448L126.348,26.032C125.868,26.248 125.376,26.41 124.872,26.518C124.38,26.626 123.792,26.68 123.108,26.68C122.172,26.68 121.344,26.494 120.624,26.122C119.904,25.75 119.34,25.198 118.932,24.466C118.536,23.722 118.338,22.81 118.338,21.73C118.338,20.638 118.518,19.714 118.878,18.958C119.25,18.202 119.76,17.626 120.408,17.23C121.068,16.822 121.836,16.618 122.712,16.618ZM122.712,18.094C122.028,18.094 121.476,18.316 121.056,18.76C120.648,19.204 120.408,19.834 120.336,20.65L124.908,20.65C124.908,20.146 124.83,19.702 124.674,19.318C124.518,18.934 124.278,18.634 123.954,18.418C123.63,18.202 123.216,18.094 122.712,18.094Z" style="fill-rule:nonzero;"/>
        </g>
    </g>
</svg>
