<?xml version="1.0" encoding="UTF-8" standalone="no"?>
<!DOCTYPE svg PUBLIC "-//W3C//DTD SVG 1.1//EN" "http://www.w3.org/Graphics/SVG/1.1/DTD/svg11.dtd">
<svg width="100%" height="100%" viewBox="0 0 512 424" version="1.1" xmlns="http://www.w3.org/2000/svg" xmlns:xlink="http://www.w3.org/1999/xlink" xml:space="preserve" xmlns:serif="http://www.serif.com/" style="fill-rule:evenodd;clip-rule:evenodd;stroke-linejoin:round;stroke-miterlimit:2;">
    <g>
        <g>
            <g>
                <path d="M247.312,11.591C247.418,11.469 247.517,11.355 247.617,11.242C305.832,88.735 334.628,142.001 334.752,171.655L334.742,171.655C334.749,172.108 334.752,172.569 334.752,173.031C334.752,221.122 295.709,260.166 247.617,260.166C247.516,260.166 247.416,260.165 247.312,260.163C247.208,260.165 247.107,260.166 247.006,260.166C198.915,260.166 159.871,221.122 159.871,173.031C159.871,172.569 159.875,172.108 159.882,171.655L159.871,171.655C159.995,142.001 188.792,88.735 247.006,11.242C247.106,11.355 247.206,11.469 247.312,11.591Z" style="fill:url(#_Linear1);"/>
                <path d="M309.695,103.472C313.576,156.51 290.636,197.866 247.312,197.492C224.857,197.298 202.582,178.963 203.237,156.002C203.839,134.921 213.356,122.708 239.995,107.064C185.62,108.362 155.444,174.941 175.924,223.414C191.72,245.648 217.681,260.166 247.006,260.166C247.107,260.166 247.208,260.165 247.312,260.163C247.416,260.165 247.516,260.166 247.617,260.166C295.709,260.166 334.752,221.122 334.752,173.031C334.752,172.569 334.749,172.108 334.742,171.655L334.752,171.655C334.686,155.751 326.372,133.055 309.695,103.472Z" style="fill:url(#_Linear2);"/>
                <path d="M309.695,103.472C313.576,156.51 290.636,197.866 247.312,197.492C224.857,197.298 202.582,178.963 203.237,156.002C203.839,134.921 213.356,122.708 239.995,107.064C185.62,108.362 155.444,174.941 175.924,223.414C191.72,245.648 217.681,260.166 247.006,260.166C247.107,260.166 247.208,260.165 247.312,260.163C247.416,260.165 247.516,260.166 247.617,260.166C295.709,260.166 334.752,221.122 334.752,173.031C334.752,172.569 334.749,172.108 334.742,171.655L334.752,171.655C334.686,155.751 326.372,133.055 309.695,103.472Z" style="fill:url(#_Linear3);"/>
            </g>
            <g>
                <path d="M247.312,11.591C247.418,11.469 247.517,11.355 247.617,11.242C305.832,88.735 334.628,142.001 334.752,171.655L334.742,171.655C334.749,172.108 334.752,172.569 334.752,173.031C334.752,221.122 295.709,260.166 247.617,260.166C247.516,260.166 247.416,260.165 247.312,260.163C247.208,260.165 247.107,260.166 247.006,260.166C198.915,260.166 159.871,221.122 159.871,173.031C159.871,172.569 159.875,172.108 159.882,171.655L159.871,171.655C159.995,142.001 188.792,88.735 247.006,11.242C247.106,11.355 247.206,11.469 247.312,11.591Z" style="fill:url(#_Linear4);"/>
                <path d="M309.695,103.472C313.576,156.51 290.636,197.866 247.312,197.492C224.857,197.298 202.582,178.963 203.237,156.002C203.839,134.921 213.356,122.708 239.995,107.064C185.62,108.362 155.444,174.941 175.924,223.414C191.72,245.648 217.681,260.166 247.006,260.166C247.107,260.166 247.208,260.165 247.312,260.163C247.416,260.165 247.516,260.166 247.617,260.166C295.709,260.166 334.752,221.122 334.752,173.031C334.752,172.569 334.749,172.108 334.742,171.655L334.752,171.655C334.686,155.751 326.372,133.055 309.695,103.472Z" style="fill:url(#_Linear5);"/>
                <path d="M309.695,103.472C313.576,156.51 290.636,197.866 247.312,197.492C224.857,197.298 202.582,178.963 203.237,156.002C203.839,134.921 213.356,122.708 239.995,107.064C185.62,108.362 155.444,174.941 175.924,223.414C191.72,245.648 217.681,260.166 247.006,260.166C247.107,260.166 247.208,260.165 247.312,260.163C247.416,260.165 247.516,260.166 247.617,260.166C295.709,260.166 334.752,221.122 334.752,173.031C334.752,172.569 334.749,172.108 334.742,171.655L334.752,171.655C334.686,155.751 326.372,133.055 309.695,103.472Z" style="fill:url(#_Linear6);"/>
            </g>
        </g>
        <g>
            <g transform="matrix(89.1894,0,0,89.1894,464.981,365.383)">
            </g>
            <text x="408.453px" y="365.383px" style="font-family:'SegoeUIBlack', 'Segoe UI';font-weight:900;font-size:89.189px;fill:rgb(36,63,34);">o</text>
            <g transform="matrix(0.297298,0,0,0.297298,-396.556,149.311)">
                <text x="1477.03px" y="880.88px" style="font-family:'SegoeUI-Light', 'Segoe UI';font-weight:300;font-size:430.587px;fill:rgb(36,63,34);">swim</text>
                <g transform="matrix(430.587,0,0,430.587,2680.07,880.88)">
                </g>
                <text x="2377.73px" y="880.88px" style="font-family:'SegoeUIBlack', 'Segoe UI';font-weight:900;font-size:430.587px;fill:rgb(36,63,34);">X</text>
            </g>
        </g>
    </g>
    <defs>
        <linearGradient id="_Linear1" x1="0" y1="0" x2="1" y2="0" gradientUnits="userSpaceOnUse" gradientTransform="matrix(1.52422e-14,248.924,-248.924,1.52422e-14,247.312,11.242)"><stop offset="0" style="stop-color:rgb(91,120,89);stop-opacity:1"/><stop offset="0.47" style="stop-color:rgb(76,104,74);stop-opacity:1"/><stop offset="1" style="stop-color:rgb(36,63,34);stop-opacity:1"/></linearGradient>
        <linearGradient id="_Linear2" x1="0" y1="0" x2="1" y2="0" gradientUnits="userSpaceOnUse" gradientTransform="matrix(64.3794,139.502,-119.759,55.2682,212.096,110.913)"><stop offset="0" style="stop-color:rgb(65,94,63);stop-opacity:1"/><stop offset="1" style="stop-color:rgb(9,29,7);stop-opacity:1"/></linearGradient>
        <linearGradient id="_Linear3" x1="0" y1="0" x2="1" y2="0" gradientUnits="userSpaceOnUse" gradientTransform="matrix(64.3794,139.502,-119.759,55.2682,212.096,110.913)"><stop offset="0" style="stop-color:rgb(65,94,63);stop-opacity:1"/><stop offset="1" style="stop-color:rgb(9,29,7);stop-opacity:1"/></linearGradient>
        <linearGradient id="_Linear4" x1="0" y1="0" x2="1" y2="0" gradientUnits="userSpaceOnUse" gradientTransform="matrix(1.52422e-14,248.924,-248.924,1.52422e-14,247.312,11.242)"><stop offset="0" style="stop-color:rgb(91,120,89);stop-opacity:1"/><stop offset="0.47" style="stop-color:rgb(76,104,74);stop-opacity:1"/><stop offset="1" style="stop-color:rgb(36,63,34);stop-opacity:1"/></linearGradient>
        <linearGradient id="_Linear5" x1="0" y1="0" x2="1" y2="0" gradientUnits="userSpaceOnUse" gradientTransform="matrix(64.3794,139.502,-119.759,55.2682,212.096,110.913)"><stop offset="0" style="stop-color:rgb(65,94,63);stop-opacity:1"/><stop offset="1" style="stop-color:rgb(9,29,7);stop-opacity:1"/></linearGradient>
        <linearGradient id="_Linear6" x1="0" y1="0" x2="1" y2="0" gradientUnits="userSpaceOnUse" gradientTransform="matrix(64.3794,139.502,-119.759,55.2682,212.096,110.913)"><stop offset="0" style="stop-color:rgb(65,94,63);stop-opacity:1"/><stop offset="1" style="stop-color:rgb(9,29,7);stop-opacity:1"/></linearGradient>
    </defs>
</svg>
