<?xml version="1.0" encoding="UTF-8" standalone="no"?>
<!DOCTYPE svg PUBLIC "-//W3C//DTD SVG 1.1//EN" "http://www.w3.org/Graphics/SVG/1.1/DTD/svg11.dtd">
<svg width="100%" height="100%" viewBox="0 0 203 197" version="1.1" xmlns="http://www.w3.org/2000/svg" xmlns:xlink="http://www.w3.org/1999/xlink" xml:space="preserve" xmlns:serif="http://www.serif.com/" style="fill-rule:evenodd;clip-rule:evenodd;stroke-linecap:round;stroke-linejoin:round;stroke-miterlimit:1.5;">
    <g transform="matrix(2.12765,0.801446,-0.801446,2.12765,-3292.98,-2378.03)">
        <g>
            <g>
                <path d="M1787.58,526.676L1784.89,534.639L1754.1,527.172L1757.12,516.821L1787.58,526.676Z" style="fill:rgb(91,120,89);stroke:rgb(19,40,17);stroke-width:1.76px;"/>
                <g>
                    <path d="M1787.58,526.676L1784.89,534.639L1754.1,527.172L1757.12,516.821L1787.58,526.676Z" style="fill:rgb(65,94,63);stroke:rgb(19,40,17);stroke-width:1.76px;"/>
                    <g>
                        <g transform="matrix(1.88558,-0.710263,0.501561,1.33152,1700.82,492.213)">
                            <rect x="0" y="0.822" width="54.674" height="79.885" style="fill:rgb(128,128,128);fill-opacity:0;fill-rule:nonzero;"/>
                        </g>
                    </g>
                </g>
                <path d="M1783.39,525.167L1796.73,510.977L1804.61,484.446L1800.95,480.633L1797.49,482.022L1791.44,497.846L1798.14,480.342L1798.64,474.253L1794.19,470.907L1791.15,472.059L1782.84,495.644L1791.55,470.943L1787.2,466.417L1783.86,467.422L1774.88,493.102L1782.39,471.616L1778.55,467.422L1775.68,467.942L1765.6,494.585L1763.65,493.272L1761.03,481.284L1757.81,478.785L1753.95,481.581L1755.98,502.318L1760.43,517.966L1783.39,525.167Z" style="fill:rgb(144,168,138);"/>
                <clipPath id="_clip1">
                    <path d="M1783.39,525.167L1796.73,510.977L1804.61,484.446L1800.95,480.633L1797.49,482.022L1791.44,497.846L1798.14,480.342L1798.64,474.253L1794.19,470.907L1791.15,472.059L1782.84,495.644L1791.55,470.943L1787.2,466.417L1783.86,467.422L1774.88,493.102L1782.39,471.616L1778.55,467.422L1775.68,467.942L1765.6,494.585L1763.65,493.272L1761.03,481.284L1757.81,478.785L1753.95,481.581L1755.98,502.318L1760.43,517.966L1783.39,525.167Z"/>
                </clipPath>
                <g clip-path="url(#_clip1)">
                    <g transform="matrix(0.278521,-0.104914,0.113268,0.300698,1597.17,330.553)">
                        <g opacity="0.25">
                            <g transform="matrix(2.30275,0,7.481e-16,1,-723.229,-4.26873)">
                                <g transform="matrix(1.36439,0,0,1,-1080.12,-14.948)">
                                    <path d="M1099.9,607.377L1199.9,607.377" style="fill:none;stroke:rgb(92,119,90);stroke-width:1.57px;stroke-dasharray:1.57,6.29,0,0,0,0;"/>
                                </g>
                                <g transform="matrix(1.36439,0,0,1,-1080.12,-1.50401)">
                                    <path d="M1099.9,607.377L1199.9,607.377" style="fill:none;stroke:rgb(92,119,90);stroke-width:1.57px;stroke-dasharray:1.57,6.29,0,0,0,0;"/>
                                </g>
                                <g transform="matrix(1.36439,0,0,1,-1080.12,11.94)">
                                    <path d="M1099.9,607.377L1199.9,607.377" style="fill:none;stroke:rgb(92,119,90);stroke-width:1.57px;stroke-dasharray:1.57,6.29,0,0,0,0;"/>
                                </g>
                                <g transform="matrix(1.36439,0,0,1,-1080.12,25.3839)">
                                    <path d="M1099.9,607.377L1199.9,607.377" style="fill:none;stroke:rgb(92,119,90);stroke-width:1.57px;stroke-dasharray:1.57,6.29,0,0,0,0;"/>
                                </g>
                                <g transform="matrix(1.36439,0,0,1,-1080.12,38.8279)">
                                    <path d="M1099.9,607.377L1199.9,607.377" style="fill:none;stroke:rgb(92,119,90);stroke-width:1.57px;stroke-dasharray:1.57,6.29,0,0,0,0;"/>
                                </g>
                                <g transform="matrix(1.36439,0,0,1,-1080.12,52.2719)">
                                    <path d="M1099.9,607.377L1199.9,607.377" style="fill:none;stroke:rgb(92,119,90);stroke-width:1.57px;stroke-dasharray:1.57,6.29,0,0,0,0;"/>
                                </g>
                                <g transform="matrix(1.36439,0,0,1,-1080.12,120.696)">
                                    <path d="M1099.9,607.377L1199.9,607.377" style="fill:none;stroke:rgb(92,119,90);stroke-width:1.57px;stroke-dasharray:1.57,6.29,0,0,0,0;"/>
                                </g>
                                <g transform="matrix(1.36439,0,0,1,-1080.12,65.7158)">
                                    <path d="M1099.9,607.377L1199.9,607.377" style="fill:none;stroke:rgb(92,119,90);stroke-width:1.57px;stroke-dasharray:1.57,6.29,0,0,0,0;"/>
                                </g>
                                <g transform="matrix(1.36439,0,0,1,-1080.12,134.14)">
                                    <path d="M1099.9,607.377L1199.9,607.377" style="fill:none;stroke:rgb(92,119,90);stroke-width:1.57px;stroke-dasharray:1.57,6.29,0,0,0,0;"/>
                                </g>
                                <g transform="matrix(1.36439,0,0,1,-1080.12,79.1598)">
                                    <path d="M1099.9,607.377L1199.9,607.377" style="fill:none;stroke:rgb(92,119,90);stroke-width:1.57px;stroke-dasharray:1.57,6.29,0,0,0,0;"/>
                                </g>
                                <g transform="matrix(1.36439,0,0,1,-1080.12,147.584)">
                                    <path d="M1099.9,607.377L1199.9,607.377" style="fill:none;stroke:rgb(92,119,90);stroke-width:1.57px;stroke-dasharray:1.57,6.29,0,0,0,0;"/>
                                </g>
                                <g transform="matrix(1.36439,0,0,1,-1080.12,92.6038)">
                                    <path d="M1099.9,607.377L1199.9,607.377" style="fill:none;stroke:rgb(92,119,90);stroke-width:1.57px;stroke-dasharray:1.57,6.29,0,0,0,0;"/>
                                </g>
                                <g transform="matrix(1.36439,0,0,1,-1080.12,161.028)">
                                    <path d="M1099.9,607.377L1199.9,607.377" style="fill:none;stroke:rgb(92,119,90);stroke-width:1.57px;stroke-dasharray:1.57,6.29,0,0,0,0;"/>
                                </g>
                                <g transform="matrix(1.36439,0,0,1,-1080.12,106.048)">
                                    <path d="M1099.9,607.377L1199.9,607.377" style="fill:none;stroke:rgb(92,119,90);stroke-width:1.57px;stroke-dasharray:1.57,6.29,0,0,0,0;"/>
                                </g>
                                <g transform="matrix(1.36439,0,0,1,-1080.12,174.472)">
                                    <path d="M1099.9,607.377L1199.9,607.377" style="fill:none;stroke:rgb(92,119,90);stroke-width:1.57px;stroke-dasharray:1.57,6.29,0,0,0,0;"/>
                                </g>
                            </g>
                        </g>
                    </g>
                </g>
                <path d="M1783.39,525.167L1796.73,510.977L1804.61,484.446L1800.95,480.633L1797.49,482.022L1791.44,497.846L1798.14,480.342L1798.64,474.253L1794.19,470.907L1791.15,472.059L1782.84,495.644L1791.55,470.943L1787.2,466.417L1783.86,467.422L1774.88,493.102L1782.39,471.616L1778.55,467.422L1775.68,467.942L1765.6,494.585L1763.65,493.272L1761.03,481.284L1757.81,478.785L1753.95,481.581L1755.98,502.318L1760.43,517.966L1783.39,525.167Z" style="fill:none;stroke:rgb(19,40,17);stroke-width:1.76px;"/>
            </g>
            <g>
                <path d="M1787.58,526.676L1784.89,534.639L1754.1,527.172L1757.12,516.821L1787.58,526.676Z" style="fill:rgb(91,120,89);stroke:rgb(19,40,17);stroke-width:1.76px;"/>
                <g>
                    <path d="M1787.58,526.676L1784.89,534.639L1754.1,527.172L1757.12,516.821L1787.58,526.676Z" style="fill:rgb(65,94,63);stroke:rgb(19,40,17);stroke-width:1.76px;"/>
                    <g>
                        <g transform="matrix(1.88558,-0.710263,0.501561,1.33152,1700.82,492.213)">
                            <rect x="0" y="0.822" width="54.674" height="79.885" style="fill:rgb(128,128,128);fill-opacity:0;fill-rule:nonzero;"/>
                        </g>
                    </g>
                </g>
                <path d="M1783.39,525.167L1796.73,510.977L1804.61,484.446L1800.95,480.633L1797.49,482.022L1791.44,497.846L1798.14,480.342L1798.64,474.253L1794.19,470.907L1791.15,472.059L1782.84,495.644L1791.55,470.943L1787.2,466.417L1783.86,467.422L1774.88,493.102L1782.39,471.616L1778.55,467.422L1775.68,467.942L1765.6,494.585L1763.65,493.272L1761.03,481.284L1757.81,478.785L1753.95,481.581L1755.98,502.318L1760.43,517.966L1783.39,525.167Z" style="fill:rgb(144,168,138);"/>
                <clipPath id="_clip2">
                    <path d="M1783.39,525.167L1796.73,510.977L1804.61,484.446L1800.95,480.633L1797.49,482.022L1791.44,497.846L1798.14,480.342L1798.64,474.253L1794.19,470.907L1791.15,472.059L1782.84,495.644L1791.55,470.943L1787.2,466.417L1783.86,467.422L1774.88,493.102L1782.39,471.616L1778.55,467.422L1775.68,467.942L1765.6,494.585L1763.65,493.272L1761.03,481.284L1757.81,478.785L1753.95,481.581L1755.98,502.318L1760.43,517.966L1783.39,525.167Z"/>
                </clipPath>
                <g clip-path="url(#_clip2)">
                    <g transform="matrix(0.278521,-0.104914,0.113268,0.300698,1597.17,330.553)">
                        <g opacity="0.25">
                            <g transform="matrix(2.30275,0,7.481e-16,1,-723.229,-4.26873)">
                                <g transform="matrix(1.36439,0,0,1,-1080.12,-14.948)">
                                    <path d="M1099.9,607.377L1199.9,607.377" style="fill:none;stroke:rgb(92,119,90);stroke-width:1.57px;stroke-dasharray:1.57,6.29,0,0,0,0;"/>
                                </g>
                                <g transform="matrix(1.36439,0,0,1,-1080.12,-1.50401)">
                                    <path d="M1099.9,607.377L1199.9,607.377" style="fill:none;stroke:rgb(92,119,90);stroke-width:1.57px;stroke-dasharray:1.57,6.29,0,0,0,0;"/>
                                </g>
                                <g transform="matrix(1.36439,0,0,1,-1080.12,11.94)">
                                    <path d="M1099.9,607.377L1199.9,607.377" style="fill:none;stroke:rgb(92,119,90);stroke-width:1.57px;stroke-dasharray:1.57,6.29,0,0,0,0;"/>
                                </g>
                                <g transform="matrix(1.36439,0,0,1,-1080.12,25.3839)">
                                    <path d="M1099.9,607.377L1199.9,607.377" style="fill:none;stroke:rgb(92,119,90);stroke-width:1.57px;stroke-dasharray:1.57,6.29,0,0,0,0;"/>
                                </g>
                                <g transform="matrix(1.36439,0,0,1,-1080.12,38.8279)">
                                    <path d="M1099.9,607.377L1199.9,607.377" style="fill:none;stroke:rgb(92,119,90);stroke-width:1.57px;stroke-dasharray:1.57,6.29,0,0,0,0;"/>
                                </g>
                                <g transform="matrix(1.36439,0,0,1,-1080.12,52.2719)">
                                    <path d="M1099.9,607.377L1199.9,607.377" style="fill:none;stroke:rgb(92,119,90);stroke-width:1.57px;stroke-dasharray:1.57,6.29,0,0,0,0;"/>
                                </g>
                                <g transform="matrix(1.36439,0,0,1,-1080.12,120.696)">
                                    <path d="M1099.9,607.377L1199.9,607.377" style="fill:none;stroke:rgb(92,119,90);stroke-width:1.57px;stroke-dasharray:1.57,6.29,0,0,0,0;"/>
                                </g>
                                <g transform="matrix(1.36439,0,0,1,-1080.12,65.7158)">
                                    <path d="M1099.9,607.377L1199.9,607.377" style="fill:none;stroke:rgb(92,119,90);stroke-width:1.57px;stroke-dasharray:1.57,6.29,0,0,0,0;"/>
                                </g>
                                <g transform="matrix(1.36439,0,0,1,-1080.12,134.14)">
                                    <path d="M1099.9,607.377L1199.9,607.377" style="fill:none;stroke:rgb(92,119,90);stroke-width:1.57px;stroke-dasharray:1.57,6.29,0,0,0,0;"/>
                                </g>
                                <g transform="matrix(1.36439,0,0,1,-1080.12,79.1598)">
                                    <path d="M1099.9,607.377L1199.9,607.377" style="fill:none;stroke:rgb(92,119,90);stroke-width:1.57px;stroke-dasharray:1.57,6.29,0,0,0,0;"/>
                                </g>
                                <g transform="matrix(1.36439,0,0,1,-1080.12,147.584)">
                                    <path d="M1099.9,607.377L1199.9,607.377" style="fill:none;stroke:rgb(92,119,90);stroke-width:1.57px;stroke-dasharray:1.57,6.29,0,0,0,0;"/>
                                </g>
                                <g transform="matrix(1.36439,0,0,1,-1080.12,92.6038)">
                                    <path d="M1099.9,607.377L1199.9,607.377" style="fill:none;stroke:rgb(92,119,90);stroke-width:1.57px;stroke-dasharray:1.57,6.29,0,0,0,0;"/>
                                </g>
                                <g transform="matrix(1.36439,0,0,1,-1080.12,161.028)">
                                    <path d="M1099.9,607.377L1199.9,607.377" style="fill:none;stroke:rgb(92,119,90);stroke-width:1.57px;stroke-dasharray:1.57,6.29,0,0,0,0;"/>
                                </g>
                                <g transform="matrix(1.36439,0,0,1,-1080.12,106.048)">
                                    <path d="M1099.9,607.377L1199.9,607.377" style="fill:none;stroke:rgb(92,119,90);stroke-width:1.57px;stroke-dasharray:1.57,6.29,0,0,0,0;"/>
                                </g>
                                <g transform="matrix(1.36439,0,0,1,-1080.12,174.472)">
                                    <path d="M1099.9,607.377L1199.9,607.377" style="fill:none;stroke:rgb(92,119,90);stroke-width:1.57px;stroke-dasharray:1.57,6.29,0,0,0,0;"/>
                                </g>
                            </g>
                        </g>
                    </g>
                </g>
                <path d="M1783.39,525.167L1796.73,510.977L1804.61,484.446L1800.95,480.633L1797.49,482.022L1791.44,497.846L1798.14,480.342L1798.64,474.253L1794.19,470.907L1791.15,472.059L1782.84,495.644L1791.55,470.943L1787.2,466.417L1783.86,467.422L1774.88,493.102L1782.39,471.616L1778.55,467.422L1775.68,467.942L1765.6,494.585L1763.65,493.272L1761.03,481.284L1757.81,478.785L1753.95,481.581L1755.98,502.318L1760.43,517.966L1783.39,525.167Z" style="fill:none;stroke:rgb(19,40,17);stroke-width:1.76px;"/>
            </g>
        </g>
        <path d="M1753.77,458.01C1738.79,465.481 1730.79,477.967 1737.33,500.884" style="fill:none;stroke:rgb(19,40,17);stroke-width:1.76px;"/>
        <path d="M1754.9,469.385C1746.21,474.645 1741.81,481.774 1745.81,492.55" style="fill:none;stroke:rgb(19,40,17);stroke-width:1.76px;"/>
        <path d="M1821.71,477.658C1829.05,493.648 1831.41,509.017 1809.2,521.816" style="fill:none;stroke:rgb(19,40,17);stroke-width:1.76px;"/>
        <path d="M1807.54,510.854C1817.03,503.972 1818.98,495.812 1813.85,486.449" style="fill:none;stroke:rgb(19,40,17);stroke-width:1.76px;"/>
    </g>
</svg>
